<svg id="Layer_1" data-name="Layer 1" xmlns="http://www.w3.org/2000/svg" xmlns:xlink="http://www.w3.org/1999/xlink" viewBox="0 0 478.29 891.69"><defs><style>.cls-1{fill:none;}.cls-2{fill:#fff;}.cls-3{clip-path:url(#clip-path);}.cls-4{fill:#231f20;}.cls-5{fill:#0052d4;}</style><clipPath id="clip-path" transform="translate(-205.86 1.24)"><rect class="cls-1" y="207" width="890" height="475.2" transform="translate(-1.19 888.01) rotate(-89.8)"/></clipPath></defs><path id="path970" class="cls-2" d="M283.42,532.31v2.08c0,.41-.44.83-.89,1.65a7.19,7.19,0,0,1-2.68,2.49h-1.77l-28.45-.1h-1.78a2.77,2.77,0,0,0-1.77.42c-1.78,0-3.12,1.23-4,2.89-.44.41-.44.83-.44,1.66a1.47,1.47,0,0,1-.46,1.24V545c-.89,2.49-2.23,3.73-5.34,3.72a5.22,5.22,0,0,1-3.55-1.26,4.94,4.94,0,0,1-1.77-3.74,4.48,4.48,0,0,1,3.13-4.56c.45-.42.89-.41,1.78-.41a3.61,3.61,0,0,0,1.78-.41,4.28,4.28,0,0,0,4-2.48c0-.42.46-.83.46-1.25V533c0-.83.45-1.24.9-2.07.45-1.25,1.78-1.66,2.67-2.49h4l26.23.09h1.77c.89,0,1.33,0,1.78-.41h.45Z" transform="translate(-205.86 1.24)"/><g id="g976"><g class="cls-3"><g id="g978"><path id="path984" class="cls-2" d="M209-1.24l-3.17,890L681,890.45l3.17-890Z" transform="translate(-205.86 1.24)"/></g></g></g><path id="path994" class="cls-4" d="M430.32,678.07a1.71,1.71,0,0,0,1.34-.42,2,2,0,0,0,0-2.49,1.7,1.7,0,0,0-1.33-.42,1.73,1.73,0,0,0-1.34.41c-.45.42-.89.83-.89,1.24s.44.84.88,1.25A1.74,1.74,0,0,0,430.32,678.07Z" transform="translate(-205.86 1.24)"/><path id="path996" class="cls-4" d="M500.59,663.77a2.73,2.73,0,0,1,2.67-1.23c1.79,0,2.67,1.25,2.66,3.74l0,3.74h-1.77c-3.11,0-4.44-1.26-4.43-3.76a3.39,3.39,0,0,1,.89-2.49Zm-79.16,15.51c1.33,1.25,3.55,1.67,6.22,1.68v-2.9a8.92,8.92,0,0,1-3.56-.85,3.08,3.08,0,0,1-.88-2.08c0-1.66,1.79-2.9,5.34-2.89l81.34.29,0-6.64c0-3.74-2.2-5.83-6.65-5.85-2.21,0-4,.4-5.34,2.06-1.33.83-1.78,2.49-1.79,4.15,0,2.08.43,3.33,1.32,3.74h-1.33l-61.78-.22v-2.08a7.9,7.9,0,0,0-2.2-5.82c-1.33-1.25-3.55-2.09-6.66-2.11-1.34,0-2.23.41-3.56.41v2.49h3.12c2.21,0,3.55.43,4.43,1.26a4.87,4.87,0,0,1,1.32,3.75c0,.83-.44,1.24-.45,2.07h-1.78c-3.11,0-5.33.39-7.11,1.63a5,5,0,0,0-2.24,4.15,4.32,4.32,0,0,0,2.21,3.75Z" transform="translate(-205.86 1.24)"/><path id="path998" class="cls-4" d="M526,658a1.66,1.66,0,0,0,1.33-.4c.45-.42.9-.83.9-1.25s-.44-.83-.89-1.25a2.35,2.35,0,0,0-2.67,0,1.48,1.48,0,0,0-.44,1.25,1.46,1.46,0,0,0,.44,1.25A1.72,1.72,0,0,0,526,658Z" transform="translate(-205.86 1.24)"/><path id="path1000" class="cls-4" d="M520.56,672.57l7.12,0,0-12.05h-3.56l0,9.56-6.23,0,.06-15.79-4,0-.06,18.29Z" transform="translate(-205.86 1.24)"/><path id="path1002" class="cls-4" d="M542.32,678.47c.89,0,1.34,0,1.78-.42,0-.41.45-.82.45-1.24s-.44-.83-.44-1.25c-.44-.41-.89-.42-1.78-.42a1.72,1.72,0,0,0-1.33.41c0,.42-.45.83-.45,1.24s.44.84.44,1.25A1.72,1.72,0,0,0,542.32,678.47Z" transform="translate(-205.86 1.24)"/><path id="path1004" class="cls-4" d="M527.65,679.24c.89,0,1.34.42,2.22.43,4.89,0,7.12-2.47,7.14-6.63v-.41l19.11.07.06-18.29h-3.55l-.06,15.79-6.22,0,0-9.56h-3.56l0,9.56-5.78,0,0-9.56-3.55,0,0,12.47a4.59,4.59,0,0,1-.9,2.91,3.55,3.55,0,0,1-2.22.82,6.1,6.1,0,0,1-2.67-.43Z" transform="translate(-205.86 1.24)"/><path id="path1006" class="cls-4" d="M560.63,654l-.07,19.12H565l.07-19.11Z" transform="translate(-205.86 1.24)"/><path id="path1008" class="cls-4" d="M432,715.05c0-.42.44-.83.44-1.25s-.44-.83-.43-1.24a1.7,1.7,0,0,0-1.34-.42,1.68,1.68,0,0,0-1.33.41,2,2,0,0,0,0,2.49,2.35,2.35,0,0,0,2.67,0Z" transform="translate(-205.86 1.24)"/><path id="path1010" class="cls-4" d="M425.74,715.44a1.66,1.66,0,0,0,1.34-.41,1.44,1.44,0,0,0,.45-1.24,1.48,1.48,0,0,0-.44-1.25,1.71,1.71,0,0,0-1.34-.42,1.73,1.73,0,0,0-1.33.41,2,2,0,0,0,0,2.49A1.7,1.7,0,0,0,425.74,715.44Z" transform="translate(-205.86 1.24)"/><path id="path1012" class="cls-4" d="M507.15,695.37a1.67,1.67,0,0,0,1.33-.41,1.44,1.44,0,0,0,.45-1.24,1.42,1.42,0,0,0-.44-1.25c-.44-.41-.88-.84-1.33-.84s-.89.42-1.34.83-.88.83-.89,1.24.44.84.89,1.25A1.68,1.68,0,0,0,507.15,695.37Z" transform="translate(-205.86 1.24)"/><path id="path1014" class="cls-4" d="M520.46,702.49c1.33-1.66,2.67-2.49,4-2.48,1.79,0,3.11,1.25,3.11,3.75s-1.8,3.73-4.91,3.72l-4.44,0A13.4,13.4,0,0,1,520.46,702.49Zm-11.54-4.62h-3.56l0,9.56-61.78-.22,0-4.16a5.48,5.48,0,0,0-1.77-4.58c-.88-.83-2.66-1.25-4.88-1.26a25.51,25.51,0,0,0-5.78.39l0,9.56h-1.78c-2.67,0-4.44-.43-5.33-1.27-1.33-.84-1.77-2.5-1.76-4.16a14.21,14.21,0,0,1,.9-4.57l-4,.82a12.09,12.09,0,0,0-.46,4.15c0,2.49.43,4.16,2.2,5.41,1.77,1.67,4.44,2.09,8,2.11l5.77,0,0-9.56a3.59,3.59,0,0,1,1.78-.41,3.92,3.92,0,0,1,2.66.84c.45.42.44,1.67.44,2.91l0,6.24,83.11.29a11.28,11.28,0,0,0,6.68-1.63,6.42,6.42,0,0,0,1.79-5,5.22,5.22,0,0,0-5.76-5.84,7.8,7.8,0,0,0-4.44,1.23,6,6,0,0,0-2.68,3.73v-4.16l0-6.65h-3.56l-.06,15.79-5.77,0Z" transform="translate(-205.86 1.24)"/><path id="path1016" class="cls-4" d="M537.79,701.3a2.49,2.49,0,0,1,2.23-1.24c1.34,0,2.22.42,3.11.43l0,7.06h-2.21q-4,0-4-3.75A3.37,3.37,0,0,1,537.79,701.3Zm-4.45,2.89c0,3.74,2.2,5.83,7.54,5.85h2.22v.41c0,2.49-1.79,3.73-4.89,3.72-1.79,0-3.12-.42-4.45-.43l-.45,2.49a15.94,15.94,0,0,0,4.44.43c3.11,0,5.33-.39,6.67-1.63a6.65,6.65,0,0,0,2.24-5l9.34,0,.06-18.28-3.56,0,0,15.8-5.78,0,0-9.13c-1.77-.84-4-.85-6.22-.86s-4,.4-5.34,2.06c-1.33.82-1.78,2.49-1.79,4.56Z" transform="translate(-205.86 1.24)"/><path id="path1018" class="cls-4" d="M560.5,691.41l-.07,19.11,4.45,0,.06-19.11Z" transform="translate(-205.86 1.24)"/><path id="path1020" class="cls-4" d="M423.44,738.29a2.75,2.75,0,0,1,2.67-1.24c.89,0,1.78.42,2.67.42l0,7.07H427c-3.11,0-4.44-1.26-4.43-3.75a3.37,3.37,0,0,1,.9-2.49ZM419,740.76c0,4.16,2.21,6.25,7.54,6.26l93.33.34v-2.5h-2.22a8.37,8.37,0,0,1-4.88-1.27,3.65,3.65,0,0,1-1.33-2.91,3,3,0,0,1,.9-2.49,3.86,3.86,0,0,1,2.67-.82c.89,0,1.78.42,2.66.42l.9-2.49a10.55,10.55,0,0,0-3.55-.43c-2.22,0-4.45.4-5.79,1.64a7.2,7.2,0,0,0-1.79,4.16,4.53,4.53,0,0,0,2.21,4.16l-7.55,0,0-10h-3.56l0,10-66.23-.24,0-9.14c-1.78-.84-4-.84-6.22-.85s-4,.4-5.34,1.64a6,6,0,0,0-1.8,4.56Z" transform="translate(-205.86 1.24)"/><path id="path1022" class="cls-4" d="M424.8,732.06c.44-.41.89-.83.89-1.24s-.44-.84-.88-1.25c0-.42-.45-.42-1.34-.42a1.72,1.72,0,0,0-1.33.41c0,.41-.45.83-.45,1.24s.44.84.44,1.25c.44.42.88.84,1.33.84C424.35,732.89,424.8,732.47,424.8,732.06Z" transform="translate(-205.86 1.24)"/><path id="path1024" class="cls-4" d="M426.58,730.82a1.46,1.46,0,0,0,.44,1.25c.44.41.88.83,1.33.84s.89-.42,1.33-.83a1.49,1.49,0,0,0,.46-1.25,1.47,1.47,0,0,0-.45-1.25,2.4,2.4,0,0,0-2.67,0A1.49,1.49,0,0,0,426.58,730.82Z" transform="translate(-205.86 1.24)"/><path id="path1026" class="cls-4" d="M500.29,750.19c-.45.42-.89.83-.89,1.25s.44.83.88,1.25c0,.42.44.42,1.33.42a1.7,1.7,0,0,0,1.33-.41c0-.42.45-.83.46-1.25a1.76,1.76,0,0,0-.45-1.25c-.44-.41-.88-.83-1.33-.83C500.74,749.37,500.29,749.78,500.29,750.19Z" transform="translate(-205.86 1.24)"/><path id="path1028" class="cls-4" d="M495.4,750.18a2,2,0,0,0,0,2.49,1.68,1.68,0,0,0,1.33.42,1.7,1.7,0,0,0,1.34-.41,1.47,1.47,0,0,0,.44-1.25c0-.82,0-1.24-.43-1.24-.45-.42-.89-.83-1.33-.84S495.84,749.76,495.4,750.18Z" transform="translate(-205.86 1.24)"/><path id="path1030" class="cls-4" d="M539.47,730a1.44,1.44,0,0,0-.45,1.24,1.49,1.49,0,0,0,.44,1.25c.44.41.89.84,1.33.84s.89-.42,1.34-.83a1.48,1.48,0,0,0,.45-1.25,1.46,1.46,0,0,0-.44-1.24,2.35,2.35,0,0,0-2.67,0Z" transform="translate(-205.86 1.24)"/><path id="path1032" class="cls-4" d="M544.36,730c-.45.42-.89.83-.89,1.25s.44.83.88,1.25c0,.41.44.83,1.33.83.45,0,.89-.41,1.34-.82,0-.42.45-.83.45-1.25s-.45-.83-.45-1.25a1.75,1.75,0,0,0-1.33-.42C544.81,729.58,544.36,729.58,544.36,730Z" transform="translate(-205.86 1.24)"/><path id="path1034" class="cls-4" d="M531.86,744.91h-1.77q-4,0-4-3.75c0-1.25,0-2.08.89-2.49a2.49,2.49,0,0,1,2.23-1.24c.89,0,2.22.42,2.67.42ZM555,728.79l-4,0L551,745l-5.33,0,0-10h-4l0,10-6.22,0,0-9.14c-1.78-.84-3.55-.84-5.78-.85-2.66,0-4.44.4-5.78,1.64a8.33,8.33,0,0,0-1.79,4.56c0,4.16,2.64,6.24,7.53,6.26h2.22v.41c0,2.5-1.79,3.74-4.9,3.73a21.08,21.08,0,0,1-4.44-.85v2.91a13.28,13.28,0,0,0,4,.43c3.1,0,5.33-.4,7.11-1.64a6.36,6.36,0,0,0,1.8-5l28.89.11.06-18.7h-3.55l-.06,16.2L555,745Z" transform="translate(-205.86 1.24)"/><path id="path1036" class="cls-4" d="M424.65,772.36a2,2,0,0,0,0,2.49,1.72,1.72,0,0,0,1.34.43,1.7,1.7,0,0,0,1.33-.42c.45-.41.89-.82.89-1.24s-.44-.83-.88-1.25-.89-.83-1.33-.83S425.1,772,424.65,772.36Z" transform="translate(-205.86 1.24)"/><path id="path1038" class="cls-4" d="M521.53,775.62a6.4,6.4,0,0,1,2.67-.82c1.78,0,3.11,1.25,3.1,3.75v3.32h-2.23c-3.11,0-4.44-1.26-4.43-3.34a5.75,5.75,0,0,1,.9-2.9Zm-95.17,15c4.45,0,7.12-2,7.58-6.2l96.89.34,0-6.64q0-6.24-6.64-6.26a7.6,7.6,0,0,0-5.34,2.05,6.05,6.05,0,0,0-1.8,4.57,4,4,0,0,0,1.77,3.75c-.45,0-1.33-.42-1.78-.42l-83.11-.3,0-9.56h-3.56l0,10.8q0,5-4,5t-4-5a19.82,19.82,0,0,1,.91-5l-4,.4a19.2,19.2,0,0,0-.47,5c0,5,2.2,7.48,7.53,7.5Z" transform="translate(-205.86 1.24)"/><path id="path1040" class="cls-4" d="M531.33,769.42l7.11,0v-1.67h-1.78c-.89,0-1.78-.42-1.78-.84s.45-.83,1.34-.83,1.33,0,1.33.42l.46-2.07h-1.79c-.88,0-2.21,0-2.67.82-.88.42-.88.83-.89,1.66,0,.42,0,.83.44.83h-1.77Z" transform="translate(-205.86 1.24)"/><path id="path1042" class="cls-4" d="M546,766.56h-3.56l-.05,15.38-8.89,0v2.91l12.44.05Z" transform="translate(-205.86 1.24)"/><path id="path1044" class="cls-4" d="M540.18,780.25l-2.63-9.56h-4l3.08,9.56Z" transform="translate(-205.86 1.24)"/><path id="path1046" class="cls-4" d="M561.1,772.43l0,9.56-6.66,0,.05-15.79H550.9l-.07,18.69,13.78,0,0-12.46Z" transform="translate(-205.86 1.24)"/><path id="path1048" class="cls-4" d="M561.92,790.3a1.43,1.43,0,0,0,.45-1.24c0-.83,0-1.25-.44-1.66-.44,0-.89-.42-1.33-.42s-.89.41-1.33.41c-.45.41-.45.83-.46,1.65a1.45,1.45,0,0,0,.45,1.25,2.29,2.29,0,0,0,2.66,0Z" transform="translate(-205.86 1.24)"/><path id="path1050" class="cls-4" d="M425.8,823.89c-.45,0-.89.41-1.33.41a1.45,1.45,0,0,0-.45,1.25c0,.83,0,1.24.44,1.24.44.42.88.84,1.33.84s.89-.42,1.34-.83c.44,0,.44-.41.44-1.24a1.45,1.45,0,0,0-.44-1.25C426.69,824.31,426.25,823.89,425.8,823.89Z" transform="translate(-205.86 1.24)"/><path id="path1052" class="cls-4" d="M430.25,823.91c-.45,0-.9.41-1.34.41,0,.41-.44.83-.45,1.24a1.78,1.78,0,0,0,.44,1.25c.44.41.89.83,1.33.84s.89-.42,1.34-.83c.44,0,.44-.41.45-1.25a1.46,1.46,0,0,0-.44-1.24C431.13,824.32,430.69,823.91,430.25,823.91Z" transform="translate(-205.86 1.24)"/><path id="path1054" class="cls-4" d="M490.76,803.76a1.73,1.73,0,0,0-1.33.41c0,.42-.45.83-.45,1.25,0,.83.44,1.25.44,1.66.44,0,.88.42,1.33.42a2.39,2.39,0,0,0,1.78-.82,1.76,1.76,0,0,0,.45-1.25c0-.42-.44-.83-.44-1.24-.45-.43-.89-.43-1.78-.43Z" transform="translate(-205.86 1.24)"/><path id="path1056" class="cls-4" d="M488.93,819.13,443.15,819l0-4.16a6,6,0,0,0-1.32-4.16A7.38,7.38,0,0,0,437,809c-2.23,0-4,.4-5.78.4l0,9.55h-2.22a10.07,10.07,0,0,1-5.33-1.27c-.89-.84-1.32-2.08-1.32-4.16,0-1.66,0-2.91.91-4.15l-4,.4a11.43,11.43,0,0,0-.91,4.15,6.8,6.8,0,0,0,2.65,5.83c1.33,1.25,4,2.09,8,2.1l5.78,0,0-10h1.78c1.34,0,2.22,0,2.67.84.44.42.43,1.25.43,2.49l0,6.65,53.33.19,0-12.46-4,0Z" transform="translate(-205.86 1.24)"/><path id="path1058" class="cls-4" d="M497,803.37l-.07,18.7h4.44l.07-18.7Z" transform="translate(-205.86 1.24)"/><path id="path1060" class="cls-4" d="M516.47,824.21a1.74,1.74,0,0,0-1.34.41,1.46,1.46,0,0,0-.45,1.25c0,.83,0,1.25.44,1.66.45,0,.89.42,1.34.42s.88-.41,1.33-.82c.44,0,.45-.42.45-1.25a1.49,1.49,0,0,0-.44-1.25,1.78,1.78,0,0,0-1.33-.42Z" transform="translate(-205.86 1.24)"/><path id="path1062" class="cls-4" d="M552,819.36l-5.78,0V816a34.12,34.12,0,0,0-.86-7.07l-3.55.41a35.34,35.34,0,0,1,.86,7.06c0,.83-.45,2.08-.46,2.91h-.44c-1.33,0-2.22,0-2.67-.43a2.38,2.38,0,0,1-.88-2.08l0-6.65h-3.56l0,6.23c0,2.08-.9,3.32-2.23,3.32a2.33,2.33,0,0,1-1.78-.84v-7.48h-4v4.57c0,1.25,0,2.49-.46,2.9s-.89.42-2.22.42l-3.55,0,0-9.55-4,0,0,9.56-5.78,0,0-9.56h-3.55l-.05,12.88a5.66,5.66,0,0,1-.9,2.9,3.48,3.48,0,0,1-2.22.41H501.8l-.46,2.49a6.08,6.08,0,0,0,2.66.43c4.45,0,6.68-2,6.7-6.63l13.33,0c2.22,0,3.56-.82,4-2.06.44,1.66,1.77,2.08,3.55,2.09,2.22,0,3.55-.4,4.44-1.64a6.39,6.39,0,0,0,1.78,1.25,8.17,8.17,0,0,0,3.55.42l14.23.06.06-18.7h-3.56Z" transform="translate(-205.86 1.24)"/><path id="path1064" class="cls-4" d="M560.09,803.59l-.06,18.7,4.45,0,.06-18.7Z" transform="translate(-205.86 1.24)"/><path id="path2164" class="cls-5" d="M419.45,609.88l4-2.89A29.34,29.34,0,0,1,439,602.47h2.22l102.64,7.43h1.78A24,24,0,0,0,560.36,605l3.57-2.9c.89-.83,2.22-.41,3.11.43s.43,2.07-.46,2.9l-3.56,2.9a28.79,28.79,0,0,1-17.36,5.75h-1.77L440.8,606.63H439a23.56,23.56,0,0,0-12.9,4.11l-4,2.48c-.89.82-2.22.4-3.11-.43a1.87,1.87,0,0,1,.45-2.91Z" transform="translate(-205.86 1.24)"/></svg>