<svg id="Layer_1" data-name="Layer 1" xmlns="http://www.w3.org/2000/svg" viewBox="0 0 458.11 819.62"><defs><style>.cls-1{fill:#1f53a4;}</style></defs><path id="path2080" class="cls-1" d="M611.38,598.06l-.27-69.19,49.13,39.45Zm66-15c.78.77,1.56.77,3.11.76a2.83,2.83,0,0,0,2.33-.78l7-5.47c2.32-2.35,2.31-4.68.75-7-1.56-1.55-4.67-2.32-6.22-.75l-3.88,3.9-61.6-50.29,122-.48-21.69,18a4.43,4.43,0,0,0,5.46,7l24-19.54,0,9.33a4.67,4.67,0,0,0,9.33,0l-.09-21h-.78v-.78l-.78-.77-.78-.78h-.78v-.77l-149.26.58-.77.78h-.77l-1.56,1.57v.77l-.77.79.34,88.62.78.77v.77l.78.79.79.77h.77l.78.77,80.07-.31a4.67,4.67,0,1,0,0-9.33l-62.19.25,43.43-26.6Z" transform="translate(-332.1 -41.43)"/><path id="path2082" class="cls-1" d="M774.69,613c-3.86,9.34-22.47,20.29-31.78,24.22-8.57-3.86-27.27-14.66-31.19-24-2.36-7-4.8-33.42-6.43-52.84,1.56,0,2.34.76,3.89.76a29.13,29.13,0,0,0,9.34,1.52c10.87,0,20.19-4.75,24.06-8.65a39,39,0,0,0,24.91,8.45c3.88,0,6.21-.79,9.32-1.59,1.55,0,2.33-.78,3.88-.79C779.22,579.52,777,606,774.69,613Zm10.63-62.24a40.49,40.49,0,0,0-10.87,1.6,22.64,22.64,0,0,1-7,1.58c-12.45.05-21-9.25-21-9.25-.78-.77-2.33-.76-3.89-.76-.77,0-2.33,0-3.1.79,0,0-8.52,9.36-21,9.41a22.64,22.64,0,0,1-7-1.52,40.34,40.34,0,0,0-10.89-1.51c-1.56,0-2.33,0-3.1.78-.78,1.56-1.55,2.34-1.55,3.9,0,4.66,2.53,49.74,7.24,60.61,6.28,15.52,35.09,28.62,38.2,30.16a2.46,2.46,0,0,0,1.57.77,2.83,2.83,0,0,0,2.32-.78c3.1-1.57,31-14.89,38-30.47,4.62-10.9,6-56,6.76-60.66,0-1.56-.78-2.33-1.56-3.88-.79-.78-1.56-.77-3.12-.77Z" transform="translate(-332.1 -41.43)"/><path id="path2084" class="cls-1" d="M745.17,620.08c-10.12-5.41-17.14-11.59-17.93-13.15-.79-3.1-2.38-12.42-4-28,4.66,0,9.32-1.59,14-3.16,2.33-.79,3.09-3.13,2.31-5.46a4.44,4.44,0,0,0-5.46-3.08,37.06,37.06,0,0,1-15.53,3.17,4.29,4.29,0,0,0-3.89,1.57c-.77.78-.76,1.56-.76,3.11.81,8.55,2.45,29.53,4.8,35v.79c3.13,6.2,20.27,16.24,22.6,17,0,.77.79.77,1.56.77a6.72,6.72,0,0,0,4.66-2.36,5.21,5.21,0,0,0-2.36-6.2Z" transform="translate(-332.1 -41.43)"/><path id="path2086" class="cls-1" d="M672.5,128.28c0-11.66,10-21,21.69-21.07S716,116.45,716,128.11l.09,22.54-43.53.17Zm-9.22,27.24a5,5,0,0,0,4.68,4.65l52.86-.21a5,5,0,0,0,4.65-4.68l-.11-27.2c-.07-17.11-14.11-30.27-31.21-30.2s-31,13.33-31,30.44Z" transform="translate(-332.1 -41.43)"/><path id="path2088" class="cls-1" d="M734.85,168.46a5.25,5.25,0,0,0-4.68-3.09l-71.51.28a5.23,5.23,0,0,0-4.65,3.13l-3.84,14.78a4.44,4.44,0,1,0,8.57,2.3L661.8,175l65.3-.26,3.15,10.87c.79,2.33,2.34,3.1,4.68,3.1h.78a4.42,4.42,0,0,0,3.08-5.46Z" transform="translate(-332.1 -41.43)"/><path id="path2090" class="cls-1" d="M694.13,94a5,5,0,0,0,4.65-4.68l-.08-21c0-2.33-2.35-3.88-4.68-3.87s-4.66,1.57-4.65,3.91l.08,21A5,5,0,0,0,694.13,94Z" transform="translate(-332.1 -41.43)"/><path id="path2092" class="cls-1" d="M659.2,105.79a5.94,5.94,0,0,0,3.11,1.55c1.56,0,2.33-.8,3.88-1.58a4.72,4.72,0,0,0,0-6.22L651.34,84.83c-1.56-1.55-4.67-1.54-7,0a4.73,4.73,0,0,0,0,6.22Z" transform="translate(-332.1 -41.43)"/><path id="path2094" class="cls-1" d="M654.64,133.79a5,5,0,0,0-4.68-4.64l-21,.08a5,5,0,0,0-4.64,4.68,4.48,4.48,0,0,0,4.68,4.65l21-.08A4.48,4.48,0,0,0,654.64,133.79Z" transform="translate(-332.1 -41.43)"/><path id="path2096" class="cls-1" d="M726.06,107.09a6,6,0,0,0,3.1-1.57l14.71-14.83a4.73,4.73,0,0,0,0-6.22c-2.34-1.55-5.45-1.54-7,0L722.14,99.32a4.73,4.73,0,0,0,0,6.22C723.73,106.31,724.5,107.09,726.06,107.09Z" transform="translate(-332.1 -41.43)"/><path id="path2098" class="cls-1" d="M759.57,128.72l-21,.08a5,5,0,0,0-4.65,4.68,4.49,4.49,0,0,0,4.69,4.65l21-.08a4.49,4.49,0,0,0,4.64-4.69A5,5,0,0,0,759.57,128.72Z" transform="translate(-332.1 -41.43)"/><path id="path2100" class="cls-1" d="M682.77,368.45l-.06-17.1,24.87-.1.06,17.11Zm3.79-24.89a8.56,8.56,0,0,1,17.11-.07v.78l-17.11.06Zm24.88.68v-.78c0-8.55-7.84-15.52-16.39-15.48s-16.3,7.06-16.26,15.61v.78c-2.33,0-3.88,1.57-3.88,3.13l.1,24.87a3.67,3.67,0,0,0,3.9,3.87l32.65-.13a3.67,3.67,0,0,0,3.88-3.9l-.1-24.87C715.34,345.78,713.77,344.23,711.44,344.24Z" transform="translate(-332.1 -41.43)"/><path id="path2102" class="cls-1" d="M762.64,316.05l.28,71.52-135.27.53-.28-71.52ZM623,396.67l144.59-.56c3.11,0,4.66-1.58,4.65-3.91L772,311.35a4.49,4.49,0,0,0-4.69-4.65l-144.59.57A4.48,4.48,0,0,0,618,312l.31,80.85c0,2.33,1.58,3.89,4.68,3.87Z" transform="translate(-332.1 -41.43)"/><path id="path2104" class="cls-1" d="M785.53,403.81l-180.36.71a4.66,4.66,0,1,0,0,9.32l180.35-.7a4.67,4.67,0,1,0,0-9.33Z" transform="translate(-332.1 -41.43)"/><path id="path2106" class="cls-1" d="M368.5,512.72a8.36,8.36,0,0,1,7.74-7.8H377c3.89,0,7.79,3.85,7.81,7.74l.05,13.22a7.79,7.79,0,0,1-7.75,7.8h-.78a7.78,7.78,0,0,1-7.8-7.74ZM376.39,543h.77c9.33,0,16.3-7.84,16.26-17.17l-.05-13.22A16,16,0,0,0,377,496.36h-.77A15.93,15.93,0,0,0,360,512.76L360,526C360,535.3,367.06,543.05,376.39,543Z" transform="translate(-332.1 -41.43)"/><path id="path2108" class="cls-1" d="M385.3,634.7c0,3.89-3.85,7.8-7.74,7.81h-.78c-3.89,0-7.78-3.85-7.8-7.74l-.05-13.21a7.78,7.78,0,0,1,7.74-7.81h.77a7.81,7.81,0,0,1,7.81,7.75Zm-7.89-30.29h-.78c-9.33,0-16.29,7.84-16.26,17.17l.06,13.21c0,9.33,7.06,17.08,16.39,17h.77c9.33,0,16.3-7.84,16.26-17.17l-.05-13.21c0-9.33-7.07-17.08-16.39-17.05Z" transform="translate(-332.1 -41.43)"/><path id="path2110" class="cls-1" d="M426.5,634.54a8.37,8.37,0,0,1-7.74,7.81H418c-3.89,0-7.79-3.86-7.81-7.75l-.05-13.21a7.8,7.8,0,0,1,7.75-7.81h.78a7.8,7.8,0,0,1,7.8,7.75Zm-7.89-30.29h-.77c-9.33,0-16.3,7.84-16.26,17.17l.05,13.21c0,9.33,7.06,17.08,16.39,17h.78c9.32,0,16.29-7.85,16.25-17.17L435,621.3C435,612,427.94,604.22,418.61,604.25Z" transform="translate(-332.1 -41.43)"/><path id="path2112" class="cls-1" d="M484,634.31c0,3.89-3.86,7.8-7.74,7.81a7.78,7.78,0,0,1-7.81-7.74l-.06-13.21c0-4.67,3.09-7.8,7.75-7.81a7.8,7.8,0,0,1,7.81,7.75ZM476.14,604a17.25,17.25,0,0,0-17,17.17l0,13.21a17.11,17.11,0,0,0,34.21-.13l-.06-13.21A17.24,17.24,0,0,0,476.14,604Z" transform="translate(-332.1 -41.43)"/><path id="path2114" class="cls-1" d="M401.42,580.22a7.8,7.8,0,0,1-7.75,7.81h-.78a7.79,7.79,0,0,1-7.8-7.74l0-13.22c0-3.88,3.85-7.79,7.74-7.8h.77c3.89,0,7.8,3.86,7.81,7.74Zm-7.9-30.28h-.78c-9.33,0-16.29,7.84-16.25,17.16l.05,13.22c0,9.33,7.06,17.07,16.39,17h.77c9.33,0,16.3-7.83,16.26-17.16l0-13.22c0-9.33-7.06-17.07-16.39-17Z" transform="translate(-332.1 -41.43)"/><path id="path2116" class="cls-1" d="M442.61,580.06a7.77,7.77,0,0,1-7.74,7.8,7.34,7.34,0,0,1-7.8-7.74L427,566.91a7.79,7.79,0,0,1,7.74-7.81,8.36,8.36,0,0,1,7.8,7.74Zm-7.89-30.28a17.23,17.23,0,0,0-17,17.16l.05,13.22a17.1,17.1,0,0,0,34.2-.13l-.05-13.22A17.25,17.25,0,0,0,434.72,549.78Z" transform="translate(-332.1 -41.43)"/><path id="path2118" class="cls-1" d="M500.14,579.84a7.78,7.78,0,0,1-15.55.06l0-13.22a7.78,7.78,0,0,1,15.55-.06Zm-7.89-30.29a17.26,17.26,0,0,0-17,17.17l.05,13.22a17.11,17.11,0,0,0,34.21-.14l-.05-13.22A17.25,17.25,0,0,0,492.25,549.55Z" transform="translate(-332.1 -41.43)"/><path id="path2120" class="cls-1" d="M443.13,512.43a7.77,7.77,0,0,1,15.54-.06l.05,13.22a7.77,7.77,0,1,1-15.54.06ZM451,542.72a17.25,17.25,0,0,0,17-17.17L468,512.33c0-9.33-7.84-16.29-17.16-16.26s-17.08,7.07-17,16.4l.05,13.21A17.26,17.26,0,0,0,451,542.72Z" transform="translate(-332.1 -41.43)"/><path id="path2122" class="cls-1" d="M499.93,525.42c0,4.67-3.08,7.79-7.74,7.81s-7.8-3.08-7.82-7.74l-.05-13.22a7.78,7.78,0,0,1,15.55-.06ZM492,495.91C482.71,496,475,503,475,512.3l.06,13.22a17.1,17.1,0,0,0,34.2-.13l-.05-13.22C509.17,502.84,501.37,495.88,492,495.91Z" transform="translate(-332.1 -41.43)"/><path id="path2124" class="cls-1" d="M405.93,542.89c2.34,0,3.88-2.34,3.87-4.68l-.15-37.31c0-3.11-1.57-4.66-3.9-4.65-3.11,0-4.66,1.58-4.65,4.68l.15,37.32A4.48,4.48,0,0,0,405.93,542.89Z" transform="translate(-332.1 -41.43)"/><path id="path2126" class="cls-1" d="M364.17,597.47a4.49,4.49,0,0,0,4.65-4.68l-.15-38.09a4.49,4.49,0,0,0-4.69-4.65c-2.33,0-3.88,2.35-3.87,4.68l.15,38.09C360.27,595.15,361.84,597.48,364.17,597.47Z" transform="translate(-332.1 -41.43)"/><path id="path2128" class="cls-1" d="M447.37,604.14a4.48,4.48,0,0,0-4.65,4.68l.15,38.1a4.49,4.49,0,0,0,4.68,4.65,5,5,0,0,0,4.65-4.69l-.15-38.09A5,5,0,0,0,447.37,604.14Z" transform="translate(-332.1 -41.43)"/><path id="path2130" class="cls-1" d="M504.9,603.91a5,5,0,0,0-4.65,4.69l.15,38.09a4.67,4.67,0,0,0,9.33,0l-.15-38.1A5,5,0,0,0,504.9,603.91Z" transform="translate(-332.1 -41.43)"/><path id="path2132" class="cls-1" d="M458.83,554.35l.15,38.08a4.67,4.67,0,1,0,9.33,0l-.15-38.09a4.67,4.67,0,1,0-9.33,0Z" transform="translate(-332.1 -41.43)"/><path id="path2134" class="cls-1" d="M422.26,542.83a5,5,0,0,0,4.64-4.68l-.14-37.32a4.48,4.48,0,0,0-4.68-4.64c-3.12,0-4.66,1.57-4.65,4.68l.15,37.31A4.48,4.48,0,0,0,422.26,542.83Z" transform="translate(-332.1 -41.43)"/><path id="path2136" class="cls-1" d="M392.19,407.68l-.25-61.41,84-.33.24,61.41Zm10.58-77.77A30.35,30.35,0,0,1,433,299.47h.77c17.1-.07,31.14,13.08,31.21,30.19l0,7-62.19.24Zm77.76,6.69-7,0,0-7a39.8,39.8,0,0,0-39.8-39.49h-.77a39.81,39.81,0,0,0-39.49,39.8l0,7-6.23,0a5,5,0,0,0-4.64,4.69l.27,70.73a5,5,0,0,0,4.69,4.65l93.28-.37c2.33,0,3.88-2.34,3.87-4.68l-.27-70.73C484.43,338.91,482.86,336.59,480.53,336.6Z" transform="translate(-332.1 -41.43)"/><path id="path2138" class="cls-1" d="M416.07,354l-12.43.05c-2.34,0-4.66,1.57-4.65,3.91l.12,31.86a4.67,4.67,0,1,0,9.33,0l-.11-27.21,7.77,0a4.48,4.48,0,0,0,4.65-4.68C420.74,355.49,418.4,353.94,416.07,354Z" transform="translate(-332.1 -41.43)"/><path id="path2140" class="cls-1" d="M463.61,381.75c-2.34,0-3.89,1.57-3.88,4.68l0,4.66-10.88.05q-4.67,0-4.65,4.68c0,2.33,1.57,3.88,4.68,3.87l14.78-.06c3.1,0,4.65-1.57,4.64-3.91l0-9.33c0-3.1-1.58-4.65-4.68-4.64Z" transform="translate(-332.1 -41.43)"/><path id="path2142" class="cls-1" d="M434,364.77a4.48,4.48,0,0,0-4.65,4.68l.06,14.77a4.48,4.48,0,0,0,4.68,4.64,5,5,0,0,0,4.65-4.68l-.06-14.77A5,5,0,0,0,434,364.77Z" transform="translate(-332.1 -41.43)"/><path id="path2144" class="cls-1" d="M353.74,120.21l30.32-.12a124.26,124.26,0,0,0,4,30.3,63,63,0,0,0-15.51,9.39C361.63,149.71,355.36,135.74,353.74,120.21Zm18.47-49.84c4.67,3.88,10.13,7,15.59,10.06A124.17,124.17,0,0,0,384,110.76l-30.31.12C355.2,95.32,361.36,81.3,372.21,70.37Zm110.54,40-30.32.12a124.14,124.14,0,0,0-4-30.3c5.43-3.14,10.85-6.27,15.5-10.17C474.86,80.86,481.14,94.83,482.75,110.37ZM418.14,86.52c7.77,0,14.76-1.61,21.75-3.19a137.56,137.56,0,0,1,3.21,27.2l-49.75.19a138.29,138.29,0,0,1,3-27.22c7,1.53,14,3,21.79,3ZM443.7,64.66c-2.35-4.66-3.92-7.76-6.26-10.87,7,2.31,14,5.4,19.47,10a32.55,32.55,0,0,1-10.85,7,52.78,52.78,0,0,0-2.36-6.21ZM418,50.76c7,0,14,8.5,19.52,23.25a62.38,62.38,0,0,1-38.87.15C404,59.37,411,50.79,418,50.76ZM390.09,71.09a32.5,32.5,0,0,1-10.91-7c5.42-4.68,12.4-7.82,19.39-10.18-2.32,3.12-3.86,6.23-6.17,10.91a52.15,52.15,0,0,0-2.31,6.23Zm2.7,94.82c2.35,3.88,3.92,7.77,6.26,10.86A72.64,72.64,0,0,1,378.8,166l11.64-7.05Q391.61,162.42,392.79,165.91ZM418.5,179.8c-7,0-14-9.27-19.53-24,6.21-1.58,12.43-3.15,19.43-3.18a4.48,4.48,0,0,0,4.64-4.68,5,5,0,0,0-4.68-4.65,67.45,67.45,0,0,0-21.76,4c-1.58-8.54-3.17-17.09-3.21-27.19l94.06-.37a5,5,0,0,0,4.64-4.68c-.08-21.77-9.48-40.39-24.31-54.33L467,59.9a73.63,73.63,0,0,0-97.95.38l-.78.78c-14.71,14-24,32.75-23.88,54.52.16,40.42,33.71,72.94,74.14,72.78,2.33,0,4.65-1.58,4.65-3.91A4.49,4.49,0,0,0,418.5,179.8Z" transform="translate(-332.1 -41.43)"/><path id="path2146" class="cls-1" d="M505.61,190.35c-3.86,9.34-22.47,19.52-31,24.22-9.35-4.63-27.27-14.66-31.19-24-3.14-7-5.57-33.4-6.42-52.84.77,0,2.33.78,3.1.77a38.91,38.91,0,0,0,9.34,1.52c11.66,0,20.19-5.52,24.84-8.65,4.68,3.09,13.25,8.5,24.13,8.45a29.1,29.1,0,0,0,9.33-1.58c1.55,0,2.32-.79,3.88-.8C510.92,156.9,508.69,183.34,505.61,190.35Zm10.64-63c-3.89,0-7.78,1.59-10.88,2.37a21.45,21.45,0,0,1-7,.81c-12.44,0-21-8.47-21-8.47a5.74,5.74,0,0,0-3.11-1.54,4,4,0,0,0-3.11,1.57c-.77,0-9.29,8.58-21.73,8.63a24.13,24.13,0,0,1-7-.75c-3.11-.76-6.23-2.31-10.89-2.29a5.78,5.78,0,0,0-3.1,1.57,6,6,0,0,0-1.55,3.11c.81,5.44,3.32,50.52,8,61.38,6.28,15.53,34.31,28.64,37.44,30.17.77,0,1.55.78,2.33.78s.77-.79,1.55-.79c3.11-1.56,31.81-14.89,38-30.47,4.63-10.89,6.78-56,6.76-61.43a3.1,3.1,0,0,0-1.57-3.11A4,4,0,0,0,516.25,127.34Z" transform="translate(-332.1 -41.43)"/><path id="path2148" class="cls-1" d="M476.88,197.46c-10.14-6.18-17.16-11.6-18.71-13.15-.8-3.1-2.38-12.42-4-28a89,89,0,0,0,14-3.16c2.33-.78,3.09-3.12,2.31-5.45a4.42,4.42,0,0,0-5.45-3.09c-5.44,1.58-10.1,3.15-15.54,3.18-1.56,0-2.33,0-3.1.78-.78,1.56-1.55,2.34-1.55,3.9.81,8.54,2.45,28.75,4.81,35,3.13,7,20.28,17,22.61,17.79a2.85,2.85,0,0,0,2.34.77,4.26,4.26,0,0,0,3.87-2.35C479.22,201.34,478.43,198.23,476.88,197.46Z" transform="translate(-332.1 -41.43)"/><path id="path2150" class="cls-1" d="M435.77,818c-3.1,0-4.65,2.35-4.64,5.45v3.89a4.49,4.49,0,0,0,4.69,4.65,5,5,0,0,0,4.64-4.68v-3.89C440.45,820.28,438.1,818,435.77,818Z" transform="translate(-332.1 -41.43)"/><path id="path2152" class="cls-1" d="M435.85,838.18a38.16,38.16,0,0,1-38.24-37.95c-.07-19.43,13.86-35.81,33.28-38.21l.18,45.86a4.48,4.48,0,0,0,4.68,4.65,5,5,0,0,0,4.65-4.68L440.22,762a38.58,38.58,0,0,1,33.57,38,38.15,38.15,0,0,1-37.94,38.24ZM435.47,741c10.1,0,18.68,6.92,23.39,17a46.89,46.89,0,0,0-46.64.18C416.07,748.08,425.37,741.05,435.47,741Zm99.71,50.91-33.47-7.63c-.77-.79-2.33,0-3.1,0l-16.31,5.5c-.79-6.22-3.93-12.42-7.84-17.85l19.41-6.29c2.33-.79,3.1-1.57,3.88-3.91L504.63,733c.76-3.12-.81-5.45-3.14-6.21a5.26,5.26,0,0,0-6.2,3.13l-6.89,27.24-17.86,5.5c-4-17.85-18-31.79-35.11-31.72s-31.82,14.11-34.86,32l-18.67-5.37-7.11-27.18a4.41,4.41,0,0,0-5.45-3.08c-3.11.78-4.65,3.12-3.86,6.23l7.88,28.73c0,2.33,1.57,3.1,3.13,3.88L396,772.26c-3.09,5.46-6.18,11.68-7.7,17.91l-16.35-5.38c-.78,0-1.56-.77-2.33,0l-33.4,7.91c-3.11.78-4.66,3.12-3.86,5.45.78,3.11,3.12,4.65,6.22,3.86l31.85-7.89,17.12,6.14c0,6.23,1.61,11.66,3.18,17.1L366.6,822.9a4.2,4.2,0,0,0-3.1,2.35l-14.65,28.82q-1.16,4.66,2.36,7h2.33a6.68,6.68,0,0,0,4.66-2.35l13.1-27.25,24.09-4.76a48.67,48.67,0,0,0,80.06-.31l24.9,4.56,13.31,27.15q1.19,2.34,4.68,2.32h1.56c2.32-1.56,3.87-3.89,2.3-7l-14.88-28.71c-.79-1.55-1.57-2.32-3.12-2.32L480.08,817a42,42,0,0,0,3-17.12L501,793.62l31.9,7.64c2.34.77,4.66-.79,5.43-3.91A4.44,4.44,0,0,0,535.18,791.92Z" transform="translate(-332.1 -41.43)"/><path id="path2154" class="cls-1" d="M654.2,813.22A16.42,16.42,0,0,1,637.81,797c0-8.54,7.71-16.35,16.26-16.39a16.43,16.43,0,0,1,16.39,16.26A15.93,15.93,0,0,1,654.2,813.22Zm106.41-21.4-80.84.31c-2.38-12.42-12.52-20.94-25.73-20.89A25.89,25.89,0,0,0,628.48,797c.06,14.77,11.77,26.39,25.76,26.33,13.21-.05,23.28-9.42,25.57-21.87l53.64-.21.07,19.44a4.67,4.67,0,1,0,9.33,0l-.08-19.44,7,0,0,6.22a4.46,4.46,0,0,0,4.68,4.64,5,5,0,0,0,4.64-4.68l0-6.22h1.55c3.11,0,4.66-1.56,4.64-4.68A4.47,4.47,0,0,0,760.61,791.82Z" transform="translate(-332.1 -41.43)"/></svg>