<svg id="Layer_1" data-name="Layer 1" xmlns="http://www.w3.org/2000/svg" viewBox="0 0 888 891.34"><defs><style>.cls-1{fill:#00e7b8;}.cls-2{fill:#fff;}.cls-3{fill:#231f20;}</style></defs><path id="path406" class="cls-1" d="M4-.67l-1.34,890,886.65,1.34,1.35-890Z" transform="translate(-2.68 0.67)"/><path id="path962" class="cls-2" d="M139.77,825.36h-2.08V826h-1.4v.63h-.69v.63h-.7v.64l-.69.63,0,34.94-.7.64v3.82h.69v2.54l.69.63v.64h.7v.63h.69V873h.69v.64H139v.64l38.25.05v-.63h1.39l.7-.64H180v-.63h.7v-.63l.7-.64v-4.44h.7l.05-36.85-.69-.64V828h-.7v-.64h-.69v-.64h-.69v-.63H178v-.64ZM132,882.53v-.63h-.69v-3.18h-.7v-1.27H130v-.64h-.7v-.63h-.7v-.64h-1.38v-.64H123.7v-.64h-1.39v-.63h-.69l-.7-.64h-.7v-.63l-.69-.63v-.64l-.69-.64.07-42.56.69-.64v-.64l.69-.63v-.64h.7v-.63h.69l.69-.63h1.4v-.64H128v-.64h1.39v-.64H130l.69-.64.7-.63v-.63h.7v-4.45h-.69v-1.27h-.7v-.64h-.69l-.69-.64h-.7l-.69-.63h-3.48V812H123.1v-.63h-1.39v-.64H121v-.64h-.7v-1.26h-.69v-1.27h-.69v-3.81h.7v-1.27l.69-.64v-.63h.7v-.64h.7v-.63h.69l.7-.63h.69l.7-.64h4.17l.7.64h.69l.69.63h.71v.64h.7v.64h.69v.63l.7.64v1.27h.69v3.81h.7v1.28h.7v.63l.7.64H137v.64h1.39v.63l39.64.06.69.64h1.39l.7.64.7.63.69.64.69.64v.63l.7.64v3.81l.69.64v1.27H185v.64l.7.63.7.63h.69v.64h4.17v.64h2.08v.63h.7l.7.64v.64h.69l.7.63V828l.69.64v2.54h.7l-.06,36.21h-.69v3.81H196v1.28h-.7v1.27h-.7l-.69.63h-.7V875h-.69v.64h-2.78v.63h-3.48v.64h-1.39v.64h-.69v.64h-.7v1.27h-.7v1.26h-.69v3.18l-.69.63v.64l-.7.64-.7.63-.69.64h-.7v.63h-1.39l-.7.63-38.94-.06v-.63h-2.08V887h-.7l-.7-.64-.69-.64-.7-.63v-.64l-.69-.63Z" transform="translate(-2.68 0.67)"/><path id="path964" class="cls-2" d="M228.86,775.3v-2.54h.7v-1.9h.7v-1.27H231l.7-.63.7-.64H233v-.64h1.39l.7-.64h3.48v-.64H240v-.63h.7v-1.27h.69V762h.7v-1.91l.69-.63v-.64l.7-.63v-.63h.7v-.64h.69l.69-.63H247v-.63h4.86v.64h1.4l.69.63h.7v.64h.69v.64l.69.63v.64h.7v1.27l.69.64v2.54h-.69v1.9H256v.64h-.69v.64l-.7.64-.7.63h-.69V769h-1.4l-.69.63h-3.48v.64h-1.39v.64h-.7v.64h-.69v1.91h-.7L244,873.17h-.7v1.27l-.69.64v.64h-.7v.64h-.7l-.69.63h-.7v.64h-3.48v.64h-2.08l-.7.63h-.7v1.28h-.69v.63l-.7.64v3.17h-.7v1.27h-.7v.63l-.69.64v.64h-.7l-.7.64-.69.64h-1.39v.64h-4.17V889h-2.08v-.64H219v-.63h-.71v-.63h-.7v-.64h-.69v-1.26h-.7v-5.09l.7-.63v-.64h.7v-.63h.69v-.63l.7-.64h.69v-.64h1.39l.69-.64h3.48v-.64h.7l.69-.63h.7v-.63H228v-1.28h.69Z" transform="translate(-2.68 0.67)"/><path id="path972" class="cls-2" d="M217.09,744.15H214.3a4.73,4.73,0,0,0-4.18,2.53V748c0,.63,0,1.26-.69,1.26v.64c-.7,1.91-2.1,3.17-4.87,3.16-1.4,0-2.79,0-3.48-1.27a4.67,4.67,0,0,1-1.39-3.18,3.51,3.51,0,0,1,2.79-3.81,2.27,2.27,0,0,1,1.39-.63H206c1.4-.64,2.79-1.27,3.49-2.54,0-.64.69-.64.69-1.27v-1.91a1.88,1.88,0,0,1,.7-1.27,5.16,5.16,0,0,1,2.78-2.53h3.48l42.42.07H263c1.38-.64,2.78-1.27,3.47-3.17a2.14,2.14,0,0,0,.71-1.27v-1.91c.7-1.91,2.09-3.17,4.87-3.16a5.58,5.58,0,0,1,3.48,1.27,3.36,3.36,0,0,1,1.38,3.18c0,1.9-.7,3.81-2.79,4.44-.69,0-.69.64-1.39.64h-1.39a4.71,4.71,0,0,0-4.17,2.54v.63a2.19,2.19,0,0,0-.71,1.91,2.2,2.2,0,0,1-.69,1.9,9.5,9.5,0,0,1-2.79,1.9,2.51,2.51,0,0,1-1.39.64Z" transform="translate(-2.68 0.67)"/><path id="path986" class="cls-3" d="M136.92,409.56l177.33.27,0-17.14-31.3-.05c10.45-9.59,15.34-23.29,15.36-41.12,0-16.45-3.42-29.48-11.76-38.42s-19.45-13.73-34.06-13.76-27.12,4.08-38.26,13a77.93,77.93,0,0,0-25.79,39.05h-.7c2.1-11,2.83-24.68,2.85-41.14l.1-62.39-21.57,0-.22,144.68-32-.05ZM190.5,392.5a102,102,0,0,1,18.15-52.08c11.16-16.44,24.38-24.65,39-24.63q29.21,0,29.16,37.07c0,26.05-14,39.07-41.79,39.71Z" transform="translate(-2.68 0.67)"/><path id="path988" class="cls-3" d="M309.39,409.82l139.07.21,0-17.14-21.55,0a168.79,168.79,0,0,0,1.43-25.37c0-21.94-4.82-38.41-15.93-49.39-11.1-11.68-29.18-17.19-54.21-17.23a169.65,169.65,0,0,0-27.82,2l0,16.45c8.34-1.35,16.69-1.34,26.42-1.32q27.12,0,39.62,12.4c6.95,8.24,11.1,21.27,11.07,39.1,0,6.17-.72,14.4-1.43,23.31l-96.66-.15Zm55.13-132.25a11.26,11.26,0,0,0,9.05-4.1,9.69,9.69,0,0,0,4.18-8.22c0-4.12-1.37-6.86-4.16-8.92a11.27,11.27,0,0,0-9-4.13,10,10,0,0,0-8.35,4.1,11,11,0,0,0-4.19,8.91,9.75,9.75,0,0,0,4.16,8.23A10,10,0,0,0,364.52,277.57Z" transform="translate(-2.68 0.67)"/><path id="path990" class="cls-3" d="M445,410l53.54.08.25-161.81-20.86,0-.22,144.67L445,392.88Z" transform="translate(-2.68 0.67)"/><path id="path992" class="cls-3" d="M542.59,247.67l-.24,162.5,22.25,0,.25-162.5Z" transform="translate(-2.68 0.67)"/><path id="path1066" class="cls-3" d="M95.61,592.57a10.58,10.58,0,0,0,7.66-2.73,9.41,9.41,0,0,0,2.79-8.91c1.39,1.37,2.08,2.06,4.17,2.07.7,0,2.09-.69,2.79-.69,1.38-.68,2.09-2,2.78-3.42a5.41,5.41,0,0,0,2.78,2.75c1.39.68,3.48.68,6.25.69h5.57a41.83,41.83,0,0,0,.71-9.6,75.05,75.05,0,0,0-1.37-12.34l-4.87.67a59.48,59.48,0,0,1,1.37,11.67v6.17h-1.39c-2.78,0-4.17-.7-4.86-1.39-.7,0-1.39-1.37-1.39-3.43l0-11h-4.18v9.6a8,8,0,0,1-1.39,4.79,3.66,3.66,0,0,1-2.79,1.37,3.61,3.61,0,0,1-2.78-1.38c-.69-1.37-.69-2.74-.69-4.79l0-8.23h-4.88l0,15.77q0,8.22-6.27,8.21c-4.17,0-6.26-2.74-6.25-8.92a32.68,32.68,0,0,1,.72-8.22l-4.88.67a32.77,32.77,0,0,0-.7,8.23c0,8.23,3.46,12.35,11.1,12.36Zm20.92-39.74c.71,0,.71-.68,1.4-.68a2.5,2.5,0,0,0,.69-2c0-.69,0-1.38-.69-1.38-.69-.68-.69-.68-1.39-.68a2.62,2.62,0,0,0-2.09.68c-.69,0-.69.68-.69,1.37a2.52,2.52,0,0,0,.69,2.06C115.15,552.15,115.84,552.83,116.53,552.83Zm3.48,5.5c.69,0,.69,0,1.39-.69a2.51,2.51,0,0,0,.7-2.06c0-.68,0-1.36-.69-1.36-.7-.7-.7-1.38-1.4-1.38-1.39,0-1.39.68-2.08,1.37-.7,0-.7.68-.7,1.37a2.49,2.49,0,0,0,.69,2C118.61,558.33,118.61,558.33,120,558.33Zm-7,0c.7,0,1.39,0,1.39-.69a2.52,2.52,0,0,0,.71-2.06c0-.68,0-1.36-.7-1.36a1.48,1.48,0,0,0-1.39-1.38c-.7,0-1.39.68-2.09,1.37-.7,0-.7.68-.7,1.36a2.47,2.47,0,0,0,.7,2.06A2.55,2.55,0,0,0,113.05,558.32Z" transform="translate(-2.68 0.67)"/><path id="path1068" class="cls-3" d="M156.81,592.66a10.49,10.49,0,0,0,7.65-2.73A11.75,11.75,0,0,0,168,581c.69,1.36,1.39,2.06,3.47,2.06.69,0,2.09-.69,2.78-.69,1.4-.68,2.09-2,2.79-3.42a5.44,5.44,0,0,0,2.78,2.75c1.38.68,3.47.69,6.26.69h5.55a40.67,40.67,0,0,0,.72-9.59,75.17,75.17,0,0,0-1.37-12.35l-4.87.68a60,60,0,0,1,1.37,11.66V579H186c-2.78,0-4.17-.7-4.87-1.38-.69,0-1.38-1.38-1.38-3.44l0-11h-4.18v9.6a8,8,0,0,1-1.4,4.8,3.65,3.65,0,0,1-2.78,1.37,3.7,3.7,0,0,1-2.79-1.38c-.69-1.38-.69-2.74-.68-4.8v-8.23h-4.86l0,15.77c0,5.49-2.1,8.22-6.27,8.22s-6.25-2.75-6.25-8.92a33.22,33.22,0,0,1,.71-8.23l-4.87.68a32.67,32.67,0,0,0-.71,8.22c0,8.23,3.46,12.35,11.11,12.36Z" transform="translate(-2.68 0.67)"/><path id="path1070" class="cls-3" d="M209,593.43c6.95,0,10.44-3.41,10.45-11l0-20.57h-4.88l0,21.26a10.51,10.51,0,0,1-1.39,5.48A10,10,0,0,1,209,590a8.87,8.87,0,0,1-4.17-.69l-.7,4.11Zm7.7-35.65a2.57,2.57,0,0,0,2.08-.68,2.45,2.45,0,0,0,.71-2.05c0-.69,0-1.38-.7-1.38a2.58,2.58,0,0,0-2.09-.68,2.52,2.52,0,0,0-2.08.68,2.4,2.4,0,0,0-.7,1.37c0,.68.69,1.37.69,2.06A2.6,2.6,0,0,0,216.67,557.78Z" transform="translate(-2.68 0.67)"/><path id="path1072" class="cls-3" d="M235.39,593.47c7,0,10.44-3.41,10.45-11l0-20.57H241l0,21.26c0,2.74,0,4.12-1.4,5.48A5.32,5.32,0,0,1,236.1,590a8.89,8.89,0,0,1-4.18-.69l-.7,4.11Z" transform="translate(-2.68 0.67)"/><path id="path1074" class="cls-3" d="M260.44,582.53l18.78,0V580.5c0-5.48-1.37-9.59-4.15-13q-3.12-4.11-10.42-6.18l-1.4,4.11a16.75,16.75,0,0,1,8.34,4.81,15.24,15.24,0,0,1,2.77,8.92l-13.91,0Zm6.3-24.67a2.57,2.57,0,0,0,2.08-.68,2.46,2.46,0,0,0,.71-2.06c0-.68,0-1.37-.7-1.37a2.56,2.56,0,0,0-2.09-.69c-.69,0-1.38,0-1.38.68-.7,0-.7.69-.71,1.38a2.47,2.47,0,0,0,.7,2C265.35,557.86,266,557.86,266.74,557.86Z" transform="translate(-2.68 0.67)"/><path id="path1076" class="cls-3" d="M292.44,582.58l18.07,0v-2.06a24.15,24.15,0,0,0-3.45-13q-3.12-4.11-10.42-6.19l-1.4,4.12a12.31,12.31,0,0,1,7.65,4.8c2.08,2.07,2.77,4.81,2.76,8.93l-13.21,0Z" transform="translate(-2.68 0.67)"/><path id="path1078" class="cls-3" d="M334.83,596.36a34.14,34.14,0,0,0,8.35-.67v-3.43a31.8,31.8,0,0,1-7.65.67,14.17,14.17,0,0,1-6.26-1.37,3.8,3.8,0,0,1-2.08-3.44c0-3.43,2.8-5.48,9.06-5.47h7.64a29.69,29.69,0,0,0,.71-7.54c0-4.8-.69-7.54-2.77-9.6s-5.55-3.44-10.43-3.45a15.34,15.34,0,0,0-5.55.68v3.43h4.87c3.48,0,6.25.7,7.65,2.07s2.08,3.44,2.07,6.87c0,1.36-.7,2.74-.71,4.11h-3.47c-4.87,0-8.34.67-10.43,2.73a7.21,7.21,0,0,0,0,12.34c2.08,1.38,4.86,2.07,9,2.07Zm-2-38.4a2.59,2.59,0,0,0,2.09-.68c0-.68.7-1.37.7-2.06a2.41,2.41,0,0,0-.69-1.37,2.58,2.58,0,0,0-2.09-.69,2.61,2.61,0,0,0-2.09.68c-.69,0-.69.69-.69,1.37a2.5,2.5,0,0,0,.69,2.06A2.55,2.55,0,0,0,332.8,558Z" transform="translate(-2.68 0.67)"/><path id="path1080" class="cls-3" d="M369.61,596.41a34.09,34.09,0,0,0,8.34-.67l-.69-3.43c-2.09.68-4.87.68-7.65.67a13.34,13.34,0,0,1-5.56-1.37,3.74,3.74,0,0,1-2.08-3.44c0-3.43,2.78-5.48,9-5.47h7.65a30.12,30.12,0,0,0,.71-7.53c0-4.81-.68-7.55-2.77-9.61s-5.56-3.44-10.42-3.45c-2.09,0-4.17,0-5.57.69v3.42h4.87c3.47,0,5.56.7,6.95,2.06s2.08,3.44,2.07,6.87v4.11H371c-4.87,0-8.35.67-10.44,2.72-2.78,1.37-3.47,3.43-3.48,6.17s.69,4.8,2.77,6.17,5.56,2.07,9.74,2.07Z" transform="translate(-2.68 0.67)"/><path id="path1082" class="cls-3" d="M413.44,582.76a30.46,30.46,0,0,0,.7-7.53c0-4.81-.68-7.55-2.76-9.61s-5.56-3.44-10.43-3.44a15.26,15.26,0,0,0-5.57.68v3.42h4.86c3.48,0,5.57.7,7,2.07s2.08,3.43,2.08,6.86v4.11h-3.48c-4.86,0-8.35.67-11.13,2.72-2.09,1.37-2.79,3.43-2.79,6.17s.69,4.8,2.77,6.17,5.56,2.07,9,2.08l.7-3.43a14.12,14.12,0,0,1-6.26-1.38,3.77,3.77,0,0,1-1.38-3.43c0-3.43,2.79-5.49,8.35-5.48Zm-5.58,9.6c.69,0,1.39-.68,2.09-1.37a2.41,2.41,0,0,0,.69-1.37c0-.69-.69-1.37-.69-2.06a3.5,3.5,0,0,0-4.17,0,2.46,2.46,0,0,0-.7,2.05c0,.69,0,1.37.69,1.37C406.46,591.67,407.16,592.36,407.86,592.36Z" transform="translate(-2.68 0.67)"/><path id="path1084" class="cls-3" d="M455.86,582.83l0-20.57H451l0,17.15h-6.26c-4.18,0-7.65-.7-9-2.76-2.09-1.37-2.78-3.43-2.77-6.86a24.16,24.16,0,0,1,1.4-7.54l-4.87.68a24.15,24.15,0,0,0-1.4,7.53,11.77,11.77,0,0,0,3.46,8.93c2.78,2.74,7,3.43,12.51,3.44Zm-12.48-29.5c.7,0,1.4-.68,2.09-.68,0-.69.69-1.37.7-2.06a2.37,2.37,0,0,0-.69-1.37,3.53,3.53,0,0,0-4.18,0v3.43C442,552.64,442.69,553.33,443.38,553.33Zm3.47,5.49a2.58,2.58,0,0,0,2.09-.69c0-.68.7-1.36.7-2a2.37,2.37,0,0,0-.69-1.37c-.7-.69-1.39-1.38-2.09-1.38s-1.39.68-2.09,1.37a2.4,2.4,0,0,0-.7,1.37c0,.69.7,1.37.7,2.06A2.54,2.54,0,0,0,446.85,558.82Zm-7,0a2.56,2.56,0,0,0,2.09-.69c0-.68.71-1.36.71-2a2.36,2.36,0,0,0-.7-1.37c-.69-.69-1.39-1.38-2.09-1.38s-1.38.68-2.09,1.37a2.41,2.41,0,0,0-.69,1.37c0,.69.69,1.37.69,2.06A2.57,2.57,0,0,0,439.89,558.81Z" transform="translate(-2.68 0.67)"/><path id="path1086" class="cls-3" d="M499,582.89l0-20.57h-4.88l0,17.14h-7c-4.17,0-6.95-.7-9-2.76-1.39-1.37-2.08-3.43-2.07-6.86,0-2.74,0-5.48,1.39-7.54l-5.56.68c-.7,2.06-.71,4.8-.71,7.54,0,4.11.69,6.86,3.47,8.92,2.08,2.75,6.25,3.44,11.82,3.44Zm-9.7-24a2.58,2.58,0,0,0,2.09-.69,2.55,2.55,0,0,0,.7-2.06c0-.68,0-1.36-.7-1.37-.69-.69-1.39-1.37-2.08-1.37a1.5,1.5,0,0,0-1.4,1.37c-.69,0-.69.68-.69,1.36a2.5,2.5,0,0,0,.69,2.06C487.88,558.88,488.58,558.88,489.27,558.89Zm-6.95,0a2.59,2.59,0,0,0,2.09-.69,2.5,2.5,0,0,0,.69-2.06c0-.68,0-1.36-.69-1.37-.7-.69-1.39-1.37-2.08-1.37s-.7.68-1.4,1.37c-.69,0-.69.68-.69,1.36a2.5,2.5,0,0,0,.69,2.06C481.62,558.87,481.62,558.87,482.32,558.88Z" transform="translate(-2.68 0.67)"/><path id="path1088" class="cls-3" d="M541.39,583l0-20.57h-4.86l0,17.15h-7c-4.17,0-7-.7-9-2.77-1.39-1.36-2.08-3.42-2.08-6.85a24.27,24.27,0,0,1,1.41-7.55L515,563a24.4,24.4,0,0,0-1.39,7.53,11.77,11.77,0,0,0,3.45,8.93c2.79,2.74,7,3.43,12.52,3.44Zm-13.22,9.58c.69,0,1.38-.68,2.09-1.37.69,0,.69-.68.69-1.37a2.49,2.49,0,0,0-.69-2,2.54,2.54,0,0,0-2.08-.7c-.71,0-1.4,0-1.4.69-.69.68-1.39,1.36-1.4,2.06a179.69,179.69,0,0,1,2.79,2.74Z" transform="translate(-2.68 0.67)"/><path id="path1090" class="cls-3" d="M557.44,552.13l-.05,31.54H563l0-31.55Z" transform="translate(-2.68 0.67)"/><path id="path1092" class="cls-3" d="M81.68,613.81H76.8l0,18.51c0,5.48-2.1,8.23-7,8.22-4.17,0-7-2.76-6.94-8.93a34.2,34.2,0,0,1,1.4-8.22l-4.86.68A33.73,33.73,0,0,0,58,632.29a13.44,13.44,0,0,0,3.46,9.6c2.09,2.06,4.87,2.75,8.35,2.76,7.65,0,11.83-4.1,11.84-13Zm-11.84,4.78a2.59,2.59,0,0,0,2.09-.68,2.4,2.4,0,0,0,.7-1.37c0-1.38-.69-1.38-.69-2.06a2.58,2.58,0,0,0-2.09-.69,2.61,2.61,0,0,0-2.09.68c-.69.68-.69.68-.69,2.06,0,.68,0,1.37.69,1.37A2.55,2.55,0,0,0,69.84,618.59Z" transform="translate(-2.68 0.67)"/><path id="path1094" class="cls-3" d="M126.15,634.45l0-11c0-6.85-3.47-9.6-9.73-9.61a14.13,14.13,0,0,0-7.64,2,13,13,0,0,0-3.49,6.16h-.7c-3.48,0-5.56.68-7,2.73-1.39,1.37-1.39,4.11-1.4,7.54L99,646.06h4.17l-2.06-14.4v-4.8a3.64,3.64,0,0,1,2.78-1.37h1.39c.68,6.17,4.16,8.92,11.81,8.93ZM121.29,631h-3.48c-4.87,0-7.65-2.75-7.64-6.86a9.82,9.82,0,0,1,1.4-4.81,6.39,6.39,0,0,1,4.87-2.05c3.48,0,4.87,2.76,4.86,6.87Z" transform="translate(-2.68 0.67)"/><path id="path1096" class="cls-3" d="M157.45,632.44c0,5.48-2.1,8.22-5.58,8.22-4.87,0-7-2.76-6.94-8.93a33.42,33.42,0,0,1,1.41-8.23l-5.57.68a33.17,33.17,0,0,0-.71,8.23c0,8.23,3.46,12.35,11.11,12.36s11.13-4.1,11.14-13l0-27.42h-4.86Z" transform="translate(-2.68 0.67)"/><path id="path1098" class="cls-3" d="M188.07,616.71l11.13,0V614h-2.09c-2.08,0-3.48-.69-3.47-2.06,0-.69.7-1.37,2.08-1.37h2.09l.71-2.74h-2.09a8.3,8.3,0,0,0-4.88,1.36,5.27,5.27,0,0,0-1.39,3.43c0,.68,0,1.37.69,1.37h-2.77Zm20.14,17.86,0-30.17h-4.86l0,26.74h-9.74c-4.18,0-7-.7-9-2.76-1.39-1.37-2.08-3.43-2.07-6.86,0-2.74,0-5.48,1.4-7.54l-5.56.68c-.7,2.05-.7,4.79-.71,7.54,0,4.12.68,6.86,3.46,8.92,2.08,2.74,6.25,3.44,11.82,3.45Z" transform="translate(-2.68 0.67)"/><path id="path1100" class="cls-3" d="M256.22,615.44c-2.78-1.37-5.56-1.38-9-1.38s-6.26.67-8.35,2.73-2.78,4.79-2.79,8.22c0,6.17,4.16,9.61,11.8,9.62h3.48v6.85a31.8,31.8,0,0,1-7.65.67c-5.56,0-9.73-.7-11.81-2.76-2.79-1.38-3.48-4.12-3.47-7.55,0-2.74,0-5.48,1.41-8.22l-5.57.68a33.17,33.17,0,0,0-.71,8.23c0,4.79,1.38,7.54,4.16,10.29,3.47,2.06,8.34,2.75,15.29,2.76a95.05,95.05,0,0,0,13.21-.66Zm-4.89,15.76h-2.78c-5.57,0-7.65-2.75-7.64-6.87a9.78,9.78,0,0,1,1.4-4.8,6.08,6.08,0,0,1,4.18-2,8.19,8.19,0,0,1,4.86,1.38Zm-.66-20.57c.69,0,.69,0,1.38-.68a2.46,2.46,0,0,0,.71-2.05c0-.69,0-1.38-.7-1.38-.69-.68-.69-1.37-1.38-1.37-1.4,0-1.4.68-2.09,1.37-.7,0-.7.68-.7,1.37a2.47,2.47,0,0,0,.69,2.06C249.27,610.63,249.27,610.63,250.67,610.63Zm-7,0c.7,0,1.39,0,1.39-.68a2.48,2.48,0,0,0,.7-2.05c0-.7,0-1.38-.69-1.38a1.5,1.5,0,0,0-1.39-1.38c-.7,0-1.39.69-2.09,1.38-.69,0-.7.68-.7,1.37a2.53,2.53,0,0,0,.69,2.06A2.61,2.61,0,0,0,243.71,610.62Z" transform="translate(-2.68 0.67)"/><path id="path1102" class="cls-3" d="M307,623.74c0-3.42-.7-5.48-2.78-7.54-1.38-1.37-4.17-2.06-6.95-2.07-3.48,0-6.26.68-8.35,2.73a14.33,14.33,0,0,0-2.79,7.54c0,3.43.69,5.48,2.77,6.86H286.8c-4.18,0-6.95-.7-8.34-2.75a9.05,9.05,0,0,1-2.77-6.87,13.63,13.63,0,0,1,2.09-7.53l-5.56.67a24.44,24.44,0,0,0-1.41,7.54,11.79,11.79,0,0,0,3.47,8.92c2.77,2.74,6.94,3.44,12.51,3.45h9.74a10.53,10.53,0,0,0,7.65-2.73c2.09-2.06,2.79-4.8,2.8-8.23Zm-4.88.69a7.92,7.92,0,0,1-1.39,4.79c-1.4,1.37-2.09,2.06-4.18,2-3.48,0-5.56-2.75-5.55-6.86a7.71,7.71,0,0,1,2.09-5.48,5.3,5.3,0,0,1,3.49-1.37c4.17,0,5.55,2.06,5.54,6.87ZM296.57,610c1.38,0,1.38,0,2.08-.69s.7-.68.7-2.05c0-.69,0-1.37-.69-1.37-.7-.69-.7-.69-2.09-.7-.7,0-1.39,0-1.39.69-.69.69-.69.69-.7,1.37,0,1.37,0,1.37.69,2.06C295.17,610,295.87,610,296.57,610Z" transform="translate(-2.68 0.67)"/><path id="path1104" class="cls-3" d="M332,646.41c2.08,0,4.86-.68,6.95-.67v-4.12a21.69,21.69,0,0,1-7,.67c-4.87,0-7.65-1.37-7.64-4.12q0-3.09,6.27-6.16l7.65-3.41-1.38-3.44-2.09,1.37a7.8,7.8,0,0,1-5.57,0c-2.08-.7-2.77-2.07-2.77-4.12,0-1.38,0-2.75,1.4-3.43a6,6,0,0,1,4.17-1.37,6.19,6.19,0,0,1,3.47.7l.71-4.12H332c-3.48,0-6.26.67-7.66,2-2.09,1.37-2.78,3.42-2.79,6.17,0,2.06.69,4.11,2.08,4.8.69,1.37,2.78,2.06,4.17,2.06-5.57,2.73-8.35,5.48-8.36,9.59,0,2.06.69,3.43,2.77,4.8a18.22,18.22,0,0,0,9.74,2.76Zm-2-36.34a2.57,2.57,0,0,0,2.08-.69c0-.68.7-.68.7-2A2.37,2.37,0,0,0,332,606a2.62,2.62,0,0,0-2.09-.7,2.54,2.54,0,0,0-2.08.69c-.71.68-.71.68-.71,1.37,0,1.37,0,1.37.7,2.06A2.57,2.57,0,0,0,330,610.07Z" transform="translate(-2.68 0.67)"/><path id="path1106" class="cls-3" d="M363.27,646.46c2.78,0,5.56-.68,7.65-.68v-4.11a21.6,21.6,0,0,1-6.95.67c-4.86,0-7.65-1.37-7.65-4.12q0-3.09,6.27-6.16l7.66-3.42-1.39-3.43-2.09,1.37a7.68,7.68,0,0,1-5.55,0c-2.09-.69-2.79-2.06-2.79-4.11,0-1.38,0-2.75,1.4-3.43a5.93,5.93,0,0,1,4.18-1.37,6.26,6.26,0,0,1,3.48.7l.7-4.12H364c-3.48,0-6.26.67-7.65,2-2.09,1.36-2.79,3.42-2.79,6.17,0,2,.69,4.11,2.08,4.8.69,1.37,2.77,2.06,4.17,2.06-5.57,2.73-8.36,5.48-8.36,9.59,0,2.06.69,3.42,2.77,4.8a17.55,17.55,0,0,0,9,2.76Z" transform="translate(-2.68 0.67)"/><path id="path1108" class="cls-3" d="M382.07,634.83l17.38,0c4.86,0,8.34-.68,10.43-2.73s2.79-4.8,2.8-8.23c0-2.74-.69-5.48-2.08-6.85-1.38-2.06-4.17-2.75-7-2.75a13.46,13.46,0,0,0-6.95,2,24.86,24.86,0,0,0-4.89,6.85,20.42,20.42,0,0,0,.71-6.85l0-11.66h-4.87l0,26.74h-5.56Zm10.43-3.41c.7-3.43,1.4-6.85,3.49-9.6s4.18-4.11,7-4.1c3.48,0,4.87,2.06,4.86,6.87,0,4.11-2.79,6.85-7.66,6.84ZM403,610.18a2.57,2.57,0,0,0,2.08-.69c.7-.68.7-.68.7-2,0-.69,0-1.37-.69-1.37a2.58,2.58,0,0,0-2.09-.69c-.7,0-1.39,0-1.39.68-.7.69-1.4.69-1.4,1.37,0,1.37.7,1.37,1.39,2.06C401.57,610.18,402.26,610.18,403,610.18Z" transform="translate(-2.68 0.67)"/><path id="path1110" class="cls-3" d="M423.09,634.9l18.08,0c4.18,0,7.66-.68,9.75-2.73A11.27,11.27,0,0,0,454.4,624a10.41,10.41,0,0,0-2.77-6.86c-1.39-2.06-3.47-2.75-6.25-2.75a11.76,11.76,0,0,0-7,2,11.55,11.55,0,0,0-4.88,6.84V616.4l0-11.66H428.7l0,26.74h-5.57Zm10.44-3.42a39.2,39.2,0,0,1,3.49-9.6c2.09-2.73,4.18-4.1,7-4.1,3.48,0,4.87,2.06,4.86,6.87,0,4.11-2.1,6.85-7.66,6.84Z" transform="translate(-2.68 0.67)"/><path id="path1112" class="cls-3" d="M478,645.26c2.78,0,5.56-.68,7-2.73,2.09-1.37,3.49-4.11,4.19-7.54l6.95,0c4.87,0,8.34-.68,10.43-2.74s2.8-4.79,2.8-8.22c0-2.74-.69-5.48-2.07-6.86-1.39-2.06-4.17-2.74-7-2.75a13.57,13.57,0,0,0-6.95,2,24.57,24.57,0,0,0-4.88,6.84,20.67,20.67,0,0,0,.7-6.85v-2.06h-4.87l0,18.51c0,5.48-2.09,8.23-6.27,8.22s-6.25-2.76-6.24-8.93c0-2.74,0-5.48,1.4-8.23l-5.56.69a32.68,32.68,0,0,0-.72,8.22c0,8.23,3.47,12.35,11.12,12.36Zm11.14-13.7c.7-3.43,1.41-6.85,3.5-9.59s4.18-4.11,6.95-4.11c3.48,0,4.87,2.07,4.86,6.87,0,4.12-2.79,6.85-7.66,6.85Zm10.47-21.23a2.55,2.55,0,0,0,2.08-.69c.7-.68.7-.68.7-2.06,0-.68,0-1.36-.69-1.36a2.54,2.54,0,0,0-2.09-.7c-.69,0-1.39,0-1.39.69-.7.68-1.39.68-1.39,1.36,0,1.38.69,1.38,1.38,2.06C498.23,610.32,498.93,610.33,499.63,610.33Z" transform="translate(-2.68 0.67)"/><path id="path1114" class="cls-3" d="M533,645.35c3.48,0,5.57-.69,7.66-2.74,2.09-1.36,3.48-4.11,3.48-7.53h7.65c4.18,0,7.66-.68,10.44-2.73a14.51,14.51,0,0,0,2.79-8.23c0-2.74-.68-5.48-2.77-6.85-1.39-2.06-3.47-2.75-6.25-2.75a11.82,11.82,0,0,0-7,2c-2.09,2.06-4.18,4.11-4.88,6.85,0-2.06.71-4.11.71-6.85v-2.06H540l0,18.51c0,5.48-2.1,8.23-6.27,8.22s-6.95-2.76-6.94-8.93a33.73,33.73,0,0,1,1.41-8.22l-4.87.68a33.71,33.71,0,0,0-1.4,8.23c0,8.23,4.15,12.35,11.1,12.36Zm11.85-13.7c0-3.43,1.39-6.85,2.79-9.6,2.09-2.74,4.87-4.11,7-4.1,3.48,0,5.56,2.06,5.56,6.87,0,4.11-2.79,6.85-7.67,6.84Z" transform="translate(-2.68 0.67)"/><path id="path1116" class="cls-3" d="M459.87,687.06l0-16.46a7.54,7.54,0,0,1,3.48-.67,10.09,10.09,0,0,1,4.86,1.37c.69,1.37.69,2.75.68,5.49v5.49h4.87v-6.17c0-3.43-.69-5.49-2.08-6.86-1.39-2.06-4.17-2.75-7.65-2.76a34.6,34.6,0,0,0-8.34.68l0,16.45h-3.48c-4.17,0-7.64-.7-9-2.76-2.08-1.37-2.77-3.43-2.77-6.86a15.48,15.48,0,0,1,2.1-7.54L437,667.83a20.1,20.1,0,0,0-1.4,6.85,13.47,13.47,0,0,0,3.46,9.61c2.78,2.06,6.95,2.75,12.52,2.76Zm-3.49,6.85a2.51,2.51,0,0,0-.69-2.06c0-.68-.69-.68-1.39-.69a2.61,2.61,0,0,0-2.09.68,2.52,2.52,0,0,0-.69,2.06,2.47,2.47,0,0,0,.68,2.06c.71,0,1.4.69,2.09.69a2.41,2.41,0,0,0,1.39-.69A2.46,2.46,0,0,0,456.38,693.91Zm-6.95,0a2.51,2.51,0,0,0-.69-2.06c0-.68-.7-.69-1.39-.69a2.44,2.44,0,0,0-2.79,2.74,2.51,2.51,0,0,0,.69,2.06c.7,0,1.4.69,2.09.69a2.45,2.45,0,0,0,2.09-2.74Z" transform="translate(-2.68 0.67)"/><path id="path1118" class="cls-3" d="M494.63,698.08c4.86,0,8.34-.67,10.43-2.72s2.79-4.11,2.79-7.55l0-19.87a30.64,30.64,0,0,0-9-1.39c-3.48,0-6.26.67-8.35,3.42-2.09,1.36-2.8,4.11-2.8,7.53,0,6.17,4.16,9.61,11.81,9.62h4.17v1.37q0,6.16-8.35,6.16a26.68,26.68,0,0,1-6.95-.7v3.43a19.69,19.69,0,0,0,6.26.69Zm9.06-14.39h-3.48c-4.87,0-7.64-2.07-7.64-6.87A9.81,9.81,0,0,1,494,672a6.37,6.37,0,0,1,4.87-2,10.25,10.25,0,0,1,4.87,1.37Z" transform="translate(-2.68 0.67)"/><path id="path1120" class="cls-3" d="M520.38,683v4.79l13.21,0v-4.79Z" transform="translate(-2.68 0.67)"/><path id="path1122" class="cls-3" d="M563.49,687.22V683.1c0-6.17-1.38-11-4.15-13.72s-7-4.13-12.52-4.13a54.69,54.69,0,0,0-10.43,1.35V670a46.54,46.54,0,0,1,9.73-1.36c4.17,0,7.65,1.38,9.73,3.44s2.77,6.18,2.76,11v.69h-4.86V682.4a20.22,20.22,0,0,0-1.38-6.86c-1.39-1.37-3.47-2.06-6.26-2.07s-4.87.69-6.26,2c-1.39.69-2.09,2.75-2.1,4.8a5.24,5.24,0,0,0,1.39,3.43h-6.26v3.43Zm-13.91-3.46H546.1c-2.77,0-4.17-1.37-4.16-4.12a3.26,3.26,0,0,1,3.48-3.42q4.17,0,4.17,6.18Z" transform="translate(-2.68 0.67)"/><path id="path2196" d="M226.52,484.44c0-3.43-.69-6.87-2.77-8.93-2.08-2.74-4.87-4.12-9-4.12v-.69c7-2,10.44-6.15,10.45-13,0-9.6-6.23-13.72-18.75-13.74l-17.38,0-.09,57.6,15.29,0c7.66,0,13.92-2,17.4-5.46a14.94,14.94,0,0,0,4.89-11.64Zm-9.7-25.39c0,6.17-4.88,9.59-14.62,9.58h-4.87l0-18.51H205c7.65,0,11.82,2.76,11.81,8.93Zm1.35,25.37c0,3.43-.7,6.17-2.79,8.23-2.79,2.05-6.26,2.73-10.44,2.72a29.16,29.16,0,0,1-7.65-.69l0-19.89h5.57C213.32,474.81,218.18,478.25,218.17,484.42Z" transform="translate(-2.68 0.67)"/><path id="path2198" d="M269.61,501.64l0-12.34,0-16.46c0-9.6-5.54-14.41-16-14.42a37.79,37.79,0,0,0-15.3,2.72l1.37,6.17a27.57,27.57,0,0,1,12.52-2.72c3.48,0,6.26.69,7.65,2.07A12.19,12.19,0,0,1,262,474.2v2.06c-8.35,0-14.61,1.35-19.48,4.09-4.18,2-7,6.16-7,10.27a11.32,11.32,0,0,0,3.47,8.23,12.12,12.12,0,0,0,9,3.44c7,0,11.83-2.72,14.62-8.89-.69,1.37-.7,4.11-.7,8.23ZM262,483.12c0,3.43-1.4,6.16-3.49,8.9a9.91,9.91,0,0,1-8.35,4.1,6.34,6.34,0,0,1-4.86-2.06c-1.39-.69-2.08-2.74-2.08-4.12q0-8.22,18.79-8.2Z" transform="translate(-2.68 0.67)"/><path id="path2200" d="M319.68,501.72l0-29.48c0-8.92-4.15-13.73-13.19-13.74-7,0-11.83,3.41-14.62,9.58h-.69a26.7,26.7,0,0,0,1.4-8.92l0-19.88h-8.34l-.1,62.39,8.35,0,0-20.57c0-4.8.7-8.23,3.49-11.66a9.1,9.1,0,0,1,8.35-4.78c4.87,0,7.65,3.44,7.64,9.61l0,27.42Z" transform="translate(-2.68 0.67)"/><path id="path2202" d="M343.4,446.21A9.42,9.42,0,0,0,342,442.1a9.93,9.93,0,0,0-4.17-1.38,5.3,5.3,0,0,0-3.48,1.37,9.68,9.68,0,0,0-1.4,4.11c0,1.37.69,2.05,1.39,3.43a5.37,5.37,0,0,0,3.47,1.37,10.07,10.07,0,0,0,4.18-1.36C342.71,448.27,343.4,447.59,343.4,446.21Zm-1.47,55.54.06-42.51-7.64,0-.07,42.52Z" transform="translate(-2.68 0.67)"/><path id="path2204" d="M365.66,446.25a9.75,9.75,0,0,0-1.39-4.12,10,10,0,0,0-4.17-1.38c-1.39,0-2.08.69-3.48,1.37a9.71,9.71,0,0,0-1.39,4.11c0,1.37.69,2.06,1.38,3.43,1.39.69,2.08,1.37,3.48,1.37a9.87,9.87,0,0,0,4.17-1.35C365,448.3,365.66,447.62,365.66,446.25Zm-1.41,13H356.6l-.08,48a18.14,18.14,0,0,1-1.39,7.53c-1.4,1.38-2.79,2.06-5.57,2.05a15.46,15.46,0,0,1-5.57-.69l-.7,6.17a17.39,17.39,0,0,0,6.26.69c5.56,0,9-1.35,11.13-4.09s3.49-6.85,3.5-12.34Z" transform="translate(-2.68 0.67)"/><path id="path2206" d="M440.68,501.9v-6.17H433a48.43,48.43,0,0,0,.71-9.6c0-8.23-2.07-14.41-5.53-18.53-4.17-4.12-11.13-6.18-20.16-6.2-4.18,0-7.66,0-10.44.68v6.17a39.94,39.94,0,0,1,9-.68c7,0,12.52,1.39,15.3,4.83q4.16,4.11,4.15,14.4c0,2.74-.71,6.17-.71,8.91H417c-18.07,0-27.13,5.45-27.15,17.1a13.44,13.44,0,0,0,6.25,11.67c4.16,2.75,9.73,4.81,17.38,4.82l.7-6.17a22.49,22.49,0,0,1-12.51-3.44c-2.78-2.06-3.47-4.12-3.47-7.55,0-6.85,5.58-10.28,18.1-10.26ZM420.49,519a3.89,3.89,0,0,0,3.48-1.36,4.1,4.1,0,0,0,0-6.17c-.7-1.38-2.09-1.38-3.48-1.38s-2.09.68-3.48,1.37a5.14,5.14,0,0,0-1.39,3.42,5.24,5.24,0,0,0,1.38,2.75A3.88,3.88,0,0,0,420.49,519Z" transform="translate(-2.68 0.67)"/><path id="path2208" d="M439.29,501.9l34.07.05v-6.17l-13.9,0,0-34.29h-7.65l-.06,34.28H439.3Zm11.8,12.36a5.08,5.08,0,0,0-1.39-2.75c-.69-1.37-2.08-1.37-3.47-1.37a3.57,3.57,0,0,0-2.78,1.37,2.7,2.7,0,0,0-1.4,2.73c0,1.38,0,2.74,1.39,3.44.69,1.36,1.39,1.36,2.77,1.37a5.4,5.4,0,0,0,3.49-1.36A5.24,5.24,0,0,0,451.09,514.26Zm12.52,0a2.73,2.73,0,0,0-1.39-2.75c-.69-1.37-1.39-1.37-2.77-1.37a5.3,5.3,0,0,0-3.49,1.36,4.11,4.11,0,0,0,0,6.18c.69,1.36,2.09,1.36,3.48,1.37a3.6,3.6,0,0,0,2.78-1.37C463.61,517,463.61,515.65,463.61,514.28Z" transform="translate(-2.68 0.67)"/><path id="path2210" d="M472,502l67.45.1v-6.17h-7.65v-2.06c0-12.34-2.75-21.26-8.31-27.44-5.54-5.49-13.19-8.25-24.32-8.26-7,0-13.22,1.34-20.17,3.39l.68,5.49a59.24,59.24,0,0,1,18.78-2.71c9.05,0,15.3,2.08,19.47,6.88s6.24,12.35,6.22,22.64v2.05H513v-3.43c0-12.35-4.83-17.83-15.27-17.85A17.77,17.77,0,0,0,486.62,478a12.23,12.23,0,0,0-4.89,10.27c0,4.12,1.38,6.87,3.46,7.56H472Zm34.08-6.12h-7.65q-4.17,0-6.26-2.07a7.19,7.19,0,0,1-3.46-6.18q0-8.24,8.35-8.21c6.26,0,9,4.81,9,13Z" transform="translate(-2.68 0.67)"/><path id="path2212" d="M538,502.05l20.87,0,.06-40.46h-8.35l-.05,34.28H538Zm11.11,17.15a2.78,2.78,0,0,0,2.78-1.36,2.72,2.72,0,0,0,1.4-2.75c0-1.36,0-2.74-1.39-3.42a2.77,2.77,0,0,0-2.78-1.38,5.35,5.35,0,0,0-3.48,1.37c-1.39.68-1.39,2.05-1.4,3.42a2.73,2.73,0,0,0,1.39,2.75C546.35,519.2,547.75,519.2,549.14,519.2Z" transform="translate(-2.68 0.67)"/></svg>