<svg id="Layer_1" data-name="Layer 1" xmlns="http://www.w3.org/2000/svg" viewBox="0 0 889.71 890.77"><defs><style>.cls-1{fill:#003470;}.cls-2{fill:#fff;}</style></defs><path id="path974" class="cls-1" d="M.15,890.77h889.7V0H.15Z" transform="translate(-0.15)"/><path id="path2166" class="cls-2" d="M441.85,587.89l-6.31-8.42a81.14,81.14,0,0,1-13.67-44.17V530l16.82-169.31,16.84,2.09-16.84-1v-3.16c0-10.51-3.15-20-9.46-27.35l-7.36-8.4c-5.26-7.37-5.26-17.88,2.11-23.15,7.35-6.31,16.82-5.25,23.13,2.11l7.35,8.42a79.31,79.31,0,0,1,16.84,48.37v5.26L454.46,533.19l-15.77-2.09,15.77,1v3.15c0,9.47,2.11,17.88,7.37,25.24l7.36,8.42c5.26,7.36,3.16,17.87-4.2,23.13S447.11,595.25,441.85,587.89Z" transform="translate(-0.15)"/></svg>