<svg id="Layer_1" data-name="Layer 1" xmlns="http://www.w3.org/2000/svg" viewBox="0 0 1081.09 519.95"><defs><style>.cls-1{fill:#f5ede0;}.cls-2{fill:#231f20;}.cls-3{fill:#0052d4;}</style></defs><path id="path960" class="cls-1" d="M-.71,1.31.38,519l1080-2.28L1079.28-1Z" transform="translate(0.71 0.97)"/><path id="path1136" class="cls-2" d="M972,484.49c3.67,0,6.11-1.85,6.1-6.74l0-11.63h-1.83l0,12.23c0,3.06-1.22,4.9-3.66,4.91-1.23,0-2.44,0-3.07-.61l-.6,1.22a6.55,6.55,0,0,0,3.07.61Z" transform="translate(0.71 0.97)"/><path id="path1138" class="cls-2" d="M983,477.74h4.27V476.5h-2.44l0-16.52H983Z" transform="translate(0.71 0.97)"/><path id="path1140" class="cls-2" d="M987.28,477.73h.61a19.57,19.57,0,0,0,8.57-1.86,9.9,9.9,0,0,0,5.51,1.83h1.84v-1.22H1002a6.52,6.52,0,0,1-4.28-1.83,5.88,5.88,0,0,0,3.66-5.51,4.63,4.63,0,0,0-1.24-2.44,5.14,5.14,0,0,0-3.67-1.22c-1.84,0-4.28,1.23-7.34,3.08v1.22a53.39,53.39,0,0,1,6.75,4.88,17,17,0,0,1-8,1.85h-.61Zm3.66-8.58c1.83-1.22,3.66-2.45,5.5-2.46a3.14,3.14,0,0,1,2.44,1.22c.63,0,.63.61.63,1.84a5.34,5.34,0,0,1-2.45,4.29C994,471.6,992.17,469.76,990.94,469.15Z" transform="translate(0.71 0.97)"/><path id="path1142" class="cls-2" d="M1025.83,477.65v-1.23h-3.67a9.23,9.23,0,0,0,.6-4.28,31.22,31.22,0,0,0-1.23-7.34l-1.23.61c.61,1.83.62,4.28.62,7.34v3.67h-1.21c-1.23,0-2.46,0-3.07-.6a3.59,3.59,0,0,1-1.23-3.06l0-6.73h-1.21v6.11a5.15,5.15,0,0,1-1.22,3.68c0,.61-1.23.61-1.83.61-1.23,0-1.84,0-2.45-1.21v-8h-1.84v5.51c0,1.22,0,2.45-.62,3.06s-1.21.61-2.44.62h-.6v1.22h.61c1.83,0,3.06-.61,3.66-1.84.61,1.22,1.24,2.44,3.07,2.44a4.41,4.41,0,0,0,4.28-2.46c0,.61.6,1.23,1.84,1.84h9.17ZM1013,463h.61c.62-.61.62-.61.62-1.23l-.62-.61h-1.22l-.62.61c0,.62,0,.62.63,1.23Zm3.67,0h.61c0-.61.62-.61.62-1.23s-.62-.61-1.23-.61h-1.23V463Zm-1.84-2.44a53.49,53.49,0,0,1,1.23-1.23,1.32,1.32,0,0,0-1.23-1.22.6.6,0,0,0-.61.61.61.61,0,0,0-.62.61A1.34,1.34,0,0,0,1014.78,460.54Z" transform="translate(0.71 0.97)"/><path id="path1144" class="cls-2" d="M1025.23,477.65h5.51l0-17.75h-1.84l0,16.52h-3.67Z" transform="translate(0.71 0.97)"/><path id="path1146" class="cls-2" d="M1035.58,459.27l0,19h2.45l0-19Z" transform="translate(0.71 0.97)"/><path id="path2158" class="cls-3" d="M834.13,388.1c-9.18,0-16.54-7.91-16.56-17.09l-.39-183a16.46,16.46,0,0,1,16.49-16.56c9.78,0,17.14,7.31,17.16,16.49l.39,183A17.1,17.1,0,0,1,834.13,388.1Z" transform="translate(0.71 0.97)"/><path id="path2160" class="cls-3" d="M267.78,229.59c0,11-9.14,19.61-20.15,19.63a19.59,19.59,0,0,1-.08-39.17C258.56,210,267.76,218.58,267.78,229.59Z" transform="translate(0.71 0.97)"/><path id="path2162" class="cls-3" d="M715.08,229.26c-33.65-.54-61.76,23.38-67.8,56.44-.6,3.67-1.83,6.74-3.66,8.58a16,16,0,0,1-12.23,6.14L357.88,301a35.69,35.69,0,0,1-25.11-10.36l-8.58-8.54-.06-27.53c0-9.18-7.38-17.74-16.56-17.72-9.18-.59-17.11,7.38-17.1,16.56l.18,83.83c.05,21.41-17.66,38.59-39.08,38.63l-7.35,0a38.4,38.4,0,0,1-38.63-38.47l-.07-34.27c0-9.17-7.38-17.11-16.56-17.09a16.74,16.74,0,0,0-17.7,16.56l.07,34.87c.09,39.77,33.2,72.14,73,72.05h7.34c40.38-.09,72.75-32.59,72.66-72.36l0-11.63a66.94,66.94,0,0,0,34.29,9.11l272.89-.58a41,41,0,0,0,14.68-2.48c9.18-3.08,20.8-10.45,29.94-25.76a63.36,63.36,0,0,0,4.86-14.09c1.81-12.23,9.75-22.65,20.76-26.35,24.45-9.23,47.12,8.47,47.17,31.72l0,21.42c0,18.35-14,34.29-32.34,35.55a34.32,34.32,0,0,1-29.4-14c-1.23-1.23-3.67-1.83-4.9,0-4.89,3.68-9.77,7.36-15.27,11a19.22,19.22,0,0,0-6.12,3.07,3.09,3.09,0,0,0-1.83,4.9,67.78,67.78,0,0,0,58.8,28.64c36.71-1.91,64.81-33.18,64.73-69.89l0-19.59c-.08-37.32-30.14-69.08-67.46-69Z" transform="translate(0.71 0.97)"/></svg>