<svg id="Layer_1" data-name="Layer 1" xmlns="http://www.w3.org/2000/svg" viewBox="0 0 1080.07 517.81"><defs><style>.cls-1{fill:#f5ede0;}.cls-2{fill:#231f20;}.cls-3{fill:#0052d4;}</style></defs><path id="path960" class="cls-1" d="M.07,0,0,517.66l1080,.15L1080.07.15Z" transform="translate(0 0)"/><path id="path1136" class="cls-2" d="M971.7,485.37c3.67,0,6.11-1.83,6.11-6.73V467H976v12.23c0,3.06-1.23,4.9-3.67,4.9-1.23,0-2.45,0-3.07-.61l-.61,1.22a6.71,6.71,0,0,0,3.07.61Z" transform="translate(0 0)"/><path id="path1138" class="cls-2" d="M982.71,478.64H987v-1.22h-2.44V460.89h-1.83Z" transform="translate(0 0)"/><path id="path1140" class="cls-2" d="M987,478.64h.61a19.59,19.59,0,0,0,8.57-1.83,9.9,9.9,0,0,0,5.51,1.83h1.83v-1.22h-1.83a6.54,6.54,0,0,1-4.28-1.84,5.88,5.88,0,0,0,3.67-5.51,4.65,4.65,0,0,0-1.23-2.44,5.15,5.15,0,0,0-3.67-1.23c-1.83,0-4.28,1.23-7.34,3.06v1.23a54,54,0,0,1,6.73,4.89,16.92,16.92,0,0,1-8,1.84H987Zm3.67-8.57c1.84-1.22,3.68-2.44,5.51-2.44a3.11,3.11,0,0,1,2.44,1.23c.63,0,.63.6.63,1.83a5.33,5.33,0,0,1-2.46,4.28C993.73,472.53,991.89,470.69,990.66,470.07Z" transform="translate(0 0)"/><path id="path1142" class="cls-2" d="M1025.54,478.65v-1.23h-3.67a9.07,9.07,0,0,0,.61-4.28,31.18,31.18,0,0,0-1.21-7.34l-1.23.61c.6,1.83.6,4.28.6,7.34v3.67h-1.21c-1.23,0-2.46,0-3.07-.61a3.64,3.64,0,0,1-1.23-3.06V467h-1.21v6.12a5.18,5.18,0,0,1-1.23,3.67c0,.61-1.23.61-1.83.61-1.23,0-1.84,0-2.45-1.22v-8h-1.84v5.51c0,1.22,0,2.45-.63,3.06s-1.21.61-2.44.61h-.6v1.22h.6c1.84,0,3.07-.61,3.67-1.83.61,1.22,1.23,2.44,3.07,2.44a4.39,4.39,0,0,0,4.28-2.44c0,.61.6,1.23,1.83,1.84h9.18ZM1012.69,464h.61c.62-.61.62-.61.62-1.23l-.62-.61h-1.21l-.63.61c0,.62,0,.62.63,1.23Zm3.67,0h.61c0-.61.62-.61.62-1.23s-.62-.61-1.23-.61h-1.23V464Zm-1.83-2.45a.59.59,0,0,0,.6-.61.61.61,0,0,0,.63-.61,1.33,1.33,0,0,0-1.23-1.23,53.49,53.49,0,0,1-1.23,1.23A1.32,1.32,0,0,0,1014.53,461.51Z" transform="translate(0 0)"/><path id="path1144" class="cls-2" d="M1024.94,478.65h5.5V460.9h-1.83v16.52h-3.67Z" transform="translate(0 0)"/><path id="path1146" class="cls-2" d="M1035.33,460.29v19h2.46v-19Z" transform="translate(0 0)"/><path id="path2158" class="cls-3" d="M834,388.67c-9.18,0-16.52-7.95-16.52-17.13l0-183a16.46,16.46,0,0,1,16.53-16.52c9.78,0,17.12,7.35,17.12,16.53l0,183A17.1,17.1,0,0,1,834,388.67Z" transform="translate(0 0)"/><path id="path2160" class="cls-3" d="M268.05,228.89c0,11-9.18,19.58-20.19,19.58a19.59,19.59,0,0,1,0-39.17C258.88,209.3,268.05,217.87,268.05,228.89Z" transform="translate(0 0)"/><path id="path2162" class="cls-3" d="M715.35,229.56c-33.65-.61-61.81,23.25-67.93,56.29-.61,3.67-1.84,6.73-3.67,8.57a16,16,0,0,1-12.25,6.11l-273.51,0a35.63,35.63,0,0,1-25.08-10.41l-8.57-8.56V254c0-9.18-7.34-17.75-16.51-17.75-9.18-.62-17.14,7.34-17.14,16.51v83.84c0,21.41-17.75,38.54-39.17,38.54h-7.34a38.39,38.39,0,0,1-38.55-38.56V302.31c0-9.18-7.34-17.14-16.52-17.14a16.74,16.74,0,0,0-17.74,16.52v34.88c0,39.77,33,72.2,72.8,72.21h7.34c40.39,0,72.83-32.42,72.83-72.19V325a66.81,66.81,0,0,0,34.27,9.18l272.9,0a41.15,41.15,0,0,0,14.68-2.44c9.18-3.06,20.82-10.4,30-25.7A64.19,64.19,0,0,0,681.07,292c1.83-12.23,9.8-22.64,20.82-26.31,24.47-9.17,47.1,8.58,47.09,31.83V318.9c0,18.36-14.06,34.27-32.42,35.49a34.33,34.33,0,0,1-29.37-14.08c-1.23-1.22-3.67-1.83-4.9,0-4.9,3.67-9.79,7.34-15.29,11a19.21,19.21,0,0,0-6.14,3.06,3.09,3.09,0,0,0-1.83,4.9,67.8,67.8,0,0,0,58.74,28.77c36.71-1.83,64.87-33,64.88-69.75V298.72c0-37.33-30-69.15-67.3-69.16Z" transform="translate(0 0)"/><path id="path2156" class="cls-3" d="M773.43,150.51A12,12,0,0,1,763,145a13.37,13.37,0,0,1,2.45-18.36l7.34-4.89a45,45,0,0,1,36.11-8.56l52.63,8.57a20.53,20.53,0,0,0,17.73-4.89l7.34-6.12c5.51-4.28,14.08-3.67,18.36,1.84,4.9,5.51,4.29,14.07-1.21,18.35l-7.35,6.13a47,47,0,0,1-38.55,10.39l-53.23-8.57a23.32,23.32,0,0,0-16.52,4.28l-6.74,4.9a13.48,13.48,0,0,1-8,2.44Z" transform="translate(0 0)"/></svg>